G04 #@! TF.FileFunction,Copper,L1,Top,Signal*
%FSLAX46Y46*%
G04 Gerber Fmt 4.6, Leading zero omitted, Abs format (unit mm)*
G04 Created by KiCad (PCBNEW 4.0.2+dfsg1-stable) date Sun 08 May 2016 11:46:39 AM CEST*
%MOMM*%
G01*
G04 APERTURE LIST*
%ADD10C,0.100000*%
%ADD11C,3.200000*%
%ADD12C,2.000000*%
%ADD13R,2.000000X1.600000*%
%ADD14R,2.032000X1.524000*%
%ADD15R,1.600000X2.000000*%
%ADD16R,1.700000X0.650000*%
%ADD17O,1.981200X3.962400*%
%ADD18O,3.962400X1.981200*%
%ADD19R,0.800100X1.800860*%
%ADD20R,0.900000X1.200000*%
%ADD21R,3.048000X1.651000*%
%ADD22R,6.096000X6.096000*%
%ADD23C,0.736600*%
%ADD24C,0.406400*%
%ADD25C,0.812800*%
%ADD26C,2.032000*%
%ADD27C,1.625600*%
%ADD28C,2.438400*%
%ADD29C,0.254000*%
G04 APERTURE END LIST*
D10*
D11*
X80640000Y-40560000D03*
D12*
X107065000Y-52355000D03*
X107065000Y-40355000D03*
X94865000Y-52355000D03*
X94865000Y-40355000D03*
X92865000Y-46355000D03*
X107065000Y-72675000D03*
X107065000Y-60675000D03*
X94865000Y-72675000D03*
X94865000Y-60675000D03*
X92865000Y-66675000D03*
D13*
X72485000Y-48260000D03*
X68485000Y-48260000D03*
D14*
X59690000Y-49784000D03*
X59690000Y-53086000D03*
D15*
X55880000Y-49435000D03*
X55880000Y-53435000D03*
D13*
X48165000Y-57150000D03*
X52165000Y-57150000D03*
D16*
X66835000Y-51435000D03*
X66835000Y-52705000D03*
X66835000Y-53975000D03*
X66835000Y-55245000D03*
X74135000Y-55245000D03*
X74135000Y-53975000D03*
X74135000Y-52705000D03*
X74135000Y-51435000D03*
D17*
X48260000Y-67945000D03*
X53260000Y-67945000D03*
D18*
X120650000Y-67310000D03*
X120650000Y-62310000D03*
X120650000Y-46990000D03*
X120650000Y-41990000D03*
D17*
X59770000Y-67945000D03*
X64770000Y-67945000D03*
D19*
X83759000Y-58270140D03*
X85659000Y-58270140D03*
X84709000Y-55267860D03*
X83742616Y-50619918D03*
X85642616Y-50619918D03*
X84692616Y-47617638D03*
D20*
X80899000Y-57869000D03*
X80899000Y-55669000D03*
X80882616Y-50218778D03*
X80882616Y-48018778D03*
D21*
X52070000Y-53721000D03*
D22*
X45720000Y-51435000D03*
D21*
X52070000Y-49149000D03*
D17*
X71374000Y-67945000D03*
X76374000Y-67945000D03*
D11*
X45640000Y-40560000D03*
D23*
X75946000Y-57404000D03*
X78994000Y-49022000D03*
X78740000Y-54102000D03*
X63754000Y-53086000D03*
X55372000Y-46736000D03*
D24*
X48006000Y-45466000D02*
X45720000Y-47752000D01*
X45720000Y-47752000D02*
X45720000Y-51435000D01*
X70866000Y-45466000D02*
X48006000Y-45466000D01*
X71628000Y-46228000D02*
X70866000Y-45466000D01*
X71659400Y-46228000D02*
X71628000Y-46228000D01*
X72485000Y-48260000D02*
X72485000Y-47053600D01*
X72485000Y-47053600D02*
X71659400Y-46228000D01*
X72485000Y-48260000D02*
X72485000Y-50310000D01*
X72485000Y-50310000D02*
X73610000Y-51435000D01*
X73610000Y-51435000D02*
X74135000Y-51435000D01*
D25*
X48165000Y-57150000D02*
X47574200Y-57150000D01*
X45720000Y-55295800D02*
X45720000Y-51435000D01*
X47574200Y-57150000D02*
X45720000Y-55295800D01*
D24*
X76374000Y-67945000D02*
X76374000Y-57832000D01*
X76374000Y-57832000D02*
X75946000Y-57404000D01*
X78994000Y-49022000D02*
X79997222Y-48018778D01*
X79997222Y-48018778D02*
X80882616Y-48018778D01*
X80899000Y-55669000D02*
X80307000Y-55669000D01*
X80307000Y-55669000D02*
X78740000Y-54102000D01*
X63754000Y-53086000D02*
X61341000Y-53086000D01*
X80899000Y-55669000D02*
X84307860Y-55669000D01*
X84307860Y-55669000D02*
X84709000Y-55267860D01*
X81982616Y-48018778D02*
X82383756Y-47617638D01*
X82383756Y-47617638D02*
X84692616Y-47617638D01*
X80882616Y-48018778D02*
X81982616Y-48018778D01*
X68485000Y-48260000D02*
X66167000Y-48260000D01*
X66167000Y-48260000D02*
X61341000Y-53086000D01*
X63500000Y-55245000D02*
X61341000Y-53086000D01*
X61341000Y-53086000D02*
X59690000Y-53086000D01*
X66835000Y-55245000D02*
X63500000Y-55245000D01*
D25*
X59690000Y-53086000D02*
X56229000Y-53086000D01*
X56229000Y-53086000D02*
X55880000Y-53435000D01*
X48260000Y-64770000D02*
X52165000Y-60865000D01*
X52165000Y-60865000D02*
X52165000Y-57150000D01*
X48260000Y-67945000D02*
X48260000Y-64770000D01*
X52165000Y-57150000D02*
X52165000Y-53816000D01*
X52165000Y-53816000D02*
X52070000Y-53721000D01*
X55880000Y-53435000D02*
X52356000Y-53435000D01*
X52356000Y-53435000D02*
X52070000Y-53721000D01*
D24*
X55372000Y-46736000D02*
X55372000Y-48927000D01*
X55372000Y-48927000D02*
X55880000Y-49435000D01*
D25*
X59690000Y-49784000D02*
X56229000Y-49784000D01*
X56229000Y-49784000D02*
X55880000Y-49435000D01*
X52070000Y-49149000D02*
X55594000Y-49149000D01*
X55594000Y-49149000D02*
X55880000Y-49435000D01*
D24*
X64770000Y-62230000D02*
X70485000Y-56515000D01*
X70485000Y-56515000D02*
X70485000Y-53975000D01*
X64770000Y-67945000D02*
X64770000Y-62230000D01*
X66835000Y-52705000D02*
X69215000Y-52705000D01*
X69215000Y-52705000D02*
X70485000Y-53975000D01*
X63246000Y-57404000D02*
X59770000Y-60880000D01*
X59770000Y-60880000D02*
X59770000Y-67945000D01*
X67564000Y-57404000D02*
X63246000Y-57404000D01*
X69215000Y-55753000D02*
X67564000Y-57404000D01*
X69215000Y-54610000D02*
X69215000Y-55753000D01*
X66835000Y-53975000D02*
X68580000Y-53975000D01*
X68580000Y-53975000D02*
X69215000Y-54610000D01*
X71374000Y-67945000D02*
X71374000Y-57481000D01*
X71374000Y-57481000D02*
X73610000Y-55245000D01*
X73610000Y-55245000D02*
X74135000Y-55245000D01*
X74135000Y-53975000D02*
X75946000Y-53975000D01*
X79967000Y-57869000D02*
X76073000Y-53975000D01*
X76073000Y-53975000D02*
X75946000Y-53975000D01*
X80899000Y-57869000D02*
X79967000Y-57869000D01*
X83759000Y-58270140D02*
X81300140Y-58270140D01*
X81300140Y-58270140D02*
X80899000Y-57869000D01*
X80899000Y-58019000D02*
X80899000Y-57869000D01*
X77470000Y-52705000D02*
X79956222Y-50218778D01*
X79956222Y-50218778D02*
X80882616Y-50218778D01*
X83742616Y-50619918D02*
X81283756Y-50619918D01*
X81283756Y-50619918D02*
X80882616Y-50218778D01*
X74135000Y-52705000D02*
X77470000Y-52705000D01*
D26*
X107065000Y-60675000D02*
X119015000Y-60675000D01*
X119015000Y-60675000D02*
X120650000Y-62310000D01*
D27*
X86210140Y-58270140D02*
X92460140Y-58270140D01*
X92460140Y-58270140D02*
X94865000Y-60675000D01*
D25*
X85659000Y-58270140D02*
X86210140Y-58270140D01*
D28*
X98044000Y-67310000D02*
X97409000Y-66675000D01*
X97409000Y-66675000D02*
X92865000Y-66675000D01*
X116967000Y-67310000D02*
X98044000Y-67310000D01*
D26*
X120650000Y-67310000D02*
X116967000Y-67310000D01*
D28*
X115031000Y-40355000D02*
X115031000Y-40790600D01*
X115031000Y-40790600D02*
X116230400Y-41990000D01*
X116230400Y-41990000D02*
X120650000Y-41990000D01*
X107065000Y-40355000D02*
X115031000Y-40355000D01*
D27*
X86193756Y-50619918D02*
X86286082Y-50619918D01*
X86286082Y-50619918D02*
X87122000Y-49784000D01*
X87122000Y-49784000D02*
X87122000Y-41148000D01*
X87122000Y-41148000D02*
X89408000Y-38862000D01*
X89408000Y-38862000D02*
X93372000Y-38862000D01*
X93372000Y-38862000D02*
X94865000Y-40355000D01*
D25*
X85642616Y-50619918D02*
X86193756Y-50619918D01*
D28*
X92865000Y-46355000D02*
X98679000Y-46355000D01*
X98679000Y-46355000D02*
X99314000Y-46990000D01*
X99314000Y-46990000D02*
X120650000Y-46990000D01*
D29*
G36*
X122428000Y-41516208D02*
X122428000Y-42478877D01*
X121879967Y-42862500D01*
X121749479Y-42862500D01*
X120650000Y-42643800D01*
X115162034Y-42643800D01*
X115060298Y-42132341D01*
X114107149Y-40705851D01*
X112680659Y-39752702D01*
X110998000Y-39418000D01*
X106392039Y-39418000D01*
X106970747Y-39052500D01*
X120087478Y-39052500D01*
X122428000Y-41516208D01*
X122428000Y-41516208D01*
G37*
X122428000Y-41516208D02*
X122428000Y-42478877D01*
X121879967Y-42862500D01*
X121749479Y-42862500D01*
X120650000Y-42643800D01*
X115162034Y-42643800D01*
X115060298Y-42132341D01*
X114107149Y-40705851D01*
X112680659Y-39752702D01*
X110998000Y-39418000D01*
X106392039Y-39418000D01*
X106970747Y-39052500D01*
X120087478Y-39052500D01*
X122428000Y-41516208D01*
G36*
X99950702Y-45497659D02*
X100903851Y-46924149D01*
X102330341Y-47877298D01*
X104013000Y-48212000D01*
X110998000Y-48212000D01*
X112680659Y-47877298D01*
X114107149Y-46924149D01*
X114703008Y-46032383D01*
X116230400Y-46336200D01*
X120650000Y-46336200D01*
X122313219Y-46005365D01*
X122338047Y-45988775D01*
X123123027Y-45832633D01*
X123698000Y-46407606D01*
X123698000Y-47571171D01*
X121805110Y-49403000D01*
X109949521Y-49403000D01*
X109405810Y-48858340D01*
X107889513Y-48228718D01*
X106247690Y-48227285D01*
X104730296Y-48854259D01*
X104180597Y-49403000D01*
X97749521Y-49403000D01*
X97205810Y-48858340D01*
X95689513Y-48228718D01*
X94059000Y-48227295D01*
X94059000Y-44513500D01*
X99754940Y-44513500D01*
X99950702Y-45497659D01*
X99950702Y-45497659D01*
G37*
X99950702Y-45497659D02*
X100903851Y-46924149D01*
X102330341Y-47877298D01*
X104013000Y-48212000D01*
X110998000Y-48212000D01*
X112680659Y-47877298D01*
X114107149Y-46924149D01*
X114703008Y-46032383D01*
X116230400Y-46336200D01*
X120650000Y-46336200D01*
X122313219Y-46005365D01*
X122338047Y-45988775D01*
X123123027Y-45832633D01*
X123698000Y-46407606D01*
X123698000Y-47571171D01*
X121805110Y-49403000D01*
X109949521Y-49403000D01*
X109405810Y-48858340D01*
X107889513Y-48228718D01*
X106247690Y-48227285D01*
X104730296Y-48854259D01*
X104180597Y-49403000D01*
X97749521Y-49403000D01*
X97205810Y-48858340D01*
X95689513Y-48228718D01*
X94059000Y-48227295D01*
X94059000Y-44513500D01*
X99754940Y-44513500D01*
X99950702Y-45497659D01*
G36*
X123063000Y-60645327D02*
X123063000Y-63436500D01*
X122967848Y-63436500D01*
X121740676Y-63192400D01*
X120777694Y-63192400D01*
X120650000Y-63167000D01*
X117988555Y-63167000D01*
X116967000Y-62963800D01*
X114908034Y-62963800D01*
X114806298Y-62452341D01*
X113853149Y-61025851D01*
X112426659Y-60072702D01*
X110744000Y-59738000D01*
X103759000Y-59738000D01*
X103632000Y-59763262D01*
X103632000Y-57912000D01*
X122941519Y-57912000D01*
X123063000Y-60645327D01*
X123063000Y-60645327D01*
G37*
X123063000Y-60645327D02*
X123063000Y-63436500D01*
X122967848Y-63436500D01*
X121740676Y-63192400D01*
X120777694Y-63192400D01*
X120650000Y-63167000D01*
X117988555Y-63167000D01*
X116967000Y-62963800D01*
X114908034Y-62963800D01*
X114806298Y-62452341D01*
X113853149Y-61025851D01*
X112426659Y-60072702D01*
X110744000Y-59738000D01*
X103759000Y-59738000D01*
X103632000Y-59763262D01*
X103632000Y-57912000D01*
X122941519Y-57912000D01*
X123063000Y-60645327D01*
G36*
X99696702Y-65817659D02*
X100649851Y-67244149D01*
X102076341Y-68197298D01*
X103759000Y-68532000D01*
X110744000Y-68532000D01*
X112426659Y-68197298D01*
X113853149Y-67244149D01*
X114572876Y-66167000D01*
X118249201Y-66167000D01*
X119559324Y-66427600D01*
X120522310Y-66427600D01*
X120650000Y-66452999D01*
X120777690Y-66427600D01*
X121740676Y-66427600D01*
X123052556Y-66166650D01*
X123052556Y-70993000D01*
X110835433Y-70993000D01*
X110565741Y-70340296D01*
X109405810Y-69178340D01*
X107889513Y-68548718D01*
X106247690Y-68547285D01*
X104730296Y-69174259D01*
X103568340Y-70334190D01*
X103294778Y-70993000D01*
X98635433Y-70993000D01*
X98365741Y-70340296D01*
X97205810Y-69178340D01*
X95689513Y-68548718D01*
X94059000Y-68547295D01*
X94059000Y-65532000D01*
X99639881Y-65532000D01*
X99696702Y-65817659D01*
X99696702Y-65817659D01*
G37*
X99696702Y-65817659D02*
X100649851Y-67244149D01*
X102076341Y-68197298D01*
X103759000Y-68532000D01*
X110744000Y-68532000D01*
X112426659Y-68197298D01*
X113853149Y-67244149D01*
X114572876Y-66167000D01*
X118249201Y-66167000D01*
X119559324Y-66427600D01*
X120522310Y-66427600D01*
X120650000Y-66452999D01*
X120777690Y-66427600D01*
X121740676Y-66427600D01*
X123052556Y-66166650D01*
X123052556Y-70993000D01*
X110835433Y-70993000D01*
X110565741Y-70340296D01*
X109405810Y-69178340D01*
X107889513Y-68548718D01*
X106247690Y-68547285D01*
X104730296Y-69174259D01*
X103568340Y-70334190D01*
X103294778Y-70993000D01*
X98635433Y-70993000D01*
X98365741Y-70340296D01*
X97205810Y-69178340D01*
X95689513Y-68548718D01*
X94059000Y-68547295D01*
X94059000Y-65532000D01*
X99639881Y-65532000D01*
X99696702Y-65817659D01*
G36*
X87503000Y-39078712D02*
X86277856Y-40303856D01*
X86019073Y-40691152D01*
X86019073Y-40691153D01*
X85928200Y-41148000D01*
X85928200Y-49289512D01*
X85886688Y-49331024D01*
X85242566Y-49331024D01*
X85101376Y-49357591D01*
X84971701Y-49441034D01*
X84884707Y-49568354D01*
X84854102Y-49719488D01*
X84854102Y-51520348D01*
X84880669Y-51661538D01*
X84964112Y-51791213D01*
X85091432Y-51878207D01*
X85242566Y-51908812D01*
X86042666Y-51908812D01*
X86183856Y-51882245D01*
X86292261Y-51812489D01*
X86742930Y-51722845D01*
X87130226Y-51464062D01*
X87503000Y-51091288D01*
X87503000Y-57076340D01*
X86304567Y-57076340D01*
X86210184Y-57011851D01*
X86059050Y-56981246D01*
X85258950Y-56981246D01*
X85117760Y-57007813D01*
X84988085Y-57091256D01*
X84901091Y-57218576D01*
X84870486Y-57369710D01*
X84870486Y-59170570D01*
X84897053Y-59311760D01*
X84980496Y-59441435D01*
X85107816Y-59528429D01*
X85258950Y-59559034D01*
X86059050Y-59559034D01*
X86200240Y-59532467D01*
X86306735Y-59463940D01*
X87503000Y-59463940D01*
X87503000Y-77014000D01*
X41096000Y-77014000D01*
X41096000Y-68072000D01*
X46634400Y-68072000D01*
X46634400Y-69062600D01*
X46806742Y-69675023D01*
X47200330Y-70174876D01*
X47755243Y-70486060D01*
X47881041Y-70516411D01*
X48133000Y-70396942D01*
X48133000Y-68072000D01*
X48387000Y-68072000D01*
X48387000Y-70396942D01*
X48638959Y-70516411D01*
X48764757Y-70486060D01*
X49319670Y-70174876D01*
X49713258Y-69675023D01*
X49885600Y-69062600D01*
X49885600Y-68072000D01*
X48387000Y-68072000D01*
X48133000Y-68072000D01*
X46634400Y-68072000D01*
X41096000Y-68072000D01*
X41096000Y-66827400D01*
X46634400Y-66827400D01*
X46634400Y-67818000D01*
X48133000Y-67818000D01*
X48133000Y-65493058D01*
X48387000Y-65493058D01*
X48387000Y-67818000D01*
X49885600Y-67818000D01*
X49885600Y-66908122D01*
X51888400Y-66908122D01*
X51888400Y-68981878D01*
X51992807Y-69506767D01*
X52290132Y-69951746D01*
X52735111Y-70249071D01*
X53260000Y-70353478D01*
X53784889Y-70249071D01*
X54229868Y-69951746D01*
X54527193Y-69506767D01*
X54631600Y-68981878D01*
X54631600Y-66908122D01*
X58398400Y-66908122D01*
X58398400Y-68981878D01*
X58502807Y-69506767D01*
X58800132Y-69951746D01*
X59245111Y-70249071D01*
X59770000Y-70353478D01*
X60294889Y-70249071D01*
X60739868Y-69951746D01*
X61037193Y-69506767D01*
X61141600Y-68981878D01*
X61141600Y-66908122D01*
X61037193Y-66383233D01*
X60739868Y-65938254D01*
X60354200Y-65680559D01*
X60354200Y-61121984D01*
X63487984Y-57988200D01*
X67564000Y-57988200D01*
X67787564Y-57943730D01*
X67977092Y-57817092D01*
X69628089Y-56166094D01*
X69628092Y-56166092D01*
X69744322Y-55992141D01*
X69754731Y-55976563D01*
X69799201Y-55753000D01*
X69799200Y-55752995D01*
X69799200Y-54610005D01*
X69799201Y-54610000D01*
X69754731Y-54386437D01*
X69628092Y-54196908D01*
X68993092Y-53561908D01*
X68803564Y-53435270D01*
X68580000Y-53390800D01*
X67970960Y-53390800D01*
X67963454Y-53379135D01*
X67906499Y-53340220D01*
X67955865Y-53308454D01*
X67969021Y-53289200D01*
X68973016Y-53289200D01*
X69900800Y-54216984D01*
X69900800Y-56273017D01*
X64356908Y-61816908D01*
X64230270Y-62006436D01*
X64185800Y-62230000D01*
X64185800Y-65680559D01*
X63800132Y-65938254D01*
X63502807Y-66383233D01*
X63398400Y-66908122D01*
X63398400Y-68981878D01*
X63502807Y-69506767D01*
X63800132Y-69951746D01*
X64245111Y-70249071D01*
X64770000Y-70353478D01*
X65294889Y-70249071D01*
X65739868Y-69951746D01*
X66037193Y-69506767D01*
X66141600Y-68981878D01*
X66141600Y-66908122D01*
X66037193Y-66383233D01*
X65739868Y-65938254D01*
X65354200Y-65680559D01*
X65354200Y-62471984D01*
X70898089Y-56928094D01*
X70898092Y-56928092D01*
X71024730Y-56738564D01*
X71024731Y-56738563D01*
X71069201Y-56515000D01*
X71069200Y-56514995D01*
X71069200Y-53975000D01*
X71024730Y-53751436D01*
X70898092Y-53561908D01*
X69628092Y-52291908D01*
X69581086Y-52260500D01*
X69438564Y-52165270D01*
X69215000Y-52120800D01*
X67970960Y-52120800D01*
X67963454Y-52109135D01*
X67906499Y-52070220D01*
X67955865Y-52038454D01*
X68042859Y-51911134D01*
X68073464Y-51760000D01*
X68073464Y-51110000D01*
X68046897Y-50968810D01*
X67963454Y-50839135D01*
X67836134Y-50752141D01*
X67685000Y-50721536D01*
X65985000Y-50721536D01*
X65843810Y-50748103D01*
X65714135Y-50831546D01*
X65627141Y-50958866D01*
X65596536Y-51110000D01*
X65596536Y-51760000D01*
X65623103Y-51901190D01*
X65706546Y-52030865D01*
X65763501Y-52069780D01*
X65714135Y-52101546D01*
X65627141Y-52228866D01*
X65596536Y-52380000D01*
X65596536Y-53030000D01*
X65623103Y-53171190D01*
X65706546Y-53300865D01*
X65763501Y-53339780D01*
X65714135Y-53371546D01*
X65627141Y-53498866D01*
X65596536Y-53650000D01*
X65596536Y-54300000D01*
X65614026Y-54392949D01*
X65446673Y-54560301D01*
X65350000Y-54793690D01*
X65350000Y-54959250D01*
X65508750Y-55118000D01*
X66708000Y-55118000D01*
X66708000Y-55098000D01*
X66962000Y-55098000D01*
X66962000Y-55118000D01*
X68161250Y-55118000D01*
X68320000Y-54959250D01*
X68320000Y-54793690D01*
X68223327Y-54560301D01*
X68222226Y-54559200D01*
X68338016Y-54559200D01*
X68630800Y-54851984D01*
X68630800Y-55511017D01*
X68231253Y-55910563D01*
X68320000Y-55696310D01*
X68320000Y-55530750D01*
X68161250Y-55372000D01*
X66962000Y-55372000D01*
X66962000Y-56046250D01*
X67120750Y-56205000D01*
X67811309Y-56205000D01*
X68025564Y-56116253D01*
X67322016Y-56819800D01*
X63246000Y-56819800D01*
X63022436Y-56864270D01*
X62907197Y-56941270D01*
X62832908Y-56990908D01*
X59356908Y-60466908D01*
X59230270Y-60656436D01*
X59185800Y-60880000D01*
X59185800Y-65680559D01*
X58800132Y-65938254D01*
X58502807Y-66383233D01*
X58398400Y-66908122D01*
X54631600Y-66908122D01*
X54527193Y-66383233D01*
X54229868Y-65938254D01*
X53784889Y-65640929D01*
X53260000Y-65536522D01*
X52735111Y-65640929D01*
X52290132Y-65938254D01*
X51992807Y-66383233D01*
X51888400Y-66908122D01*
X49885600Y-66908122D01*
X49885600Y-66827400D01*
X49713258Y-66214977D01*
X49319670Y-65715124D01*
X48764757Y-65403940D01*
X48638959Y-65373589D01*
X48387000Y-65493058D01*
X48133000Y-65493058D01*
X47881041Y-65373589D01*
X47755243Y-65403940D01*
X47200330Y-65715124D01*
X46806742Y-66214977D01*
X46634400Y-66827400D01*
X41096000Y-66827400D01*
X41096000Y-48387000D01*
X42283536Y-48387000D01*
X42283536Y-54483000D01*
X42310103Y-54624190D01*
X42393546Y-54753865D01*
X42520866Y-54840859D01*
X42672000Y-54871464D01*
X44932600Y-54871464D01*
X44932600Y-55295800D01*
X44992537Y-55597125D01*
X45163224Y-55852576D01*
X46776536Y-57465888D01*
X46776536Y-57950000D01*
X46803103Y-58091190D01*
X46886546Y-58220865D01*
X47013866Y-58307859D01*
X47165000Y-58338464D01*
X49165000Y-58338464D01*
X49306190Y-58311897D01*
X49435865Y-58228454D01*
X49522859Y-58101134D01*
X49553464Y-57950000D01*
X49553464Y-57435750D01*
X50530000Y-57435750D01*
X50530000Y-58076310D01*
X50626673Y-58309699D01*
X50805302Y-58488327D01*
X51038691Y-58585000D01*
X51879250Y-58585000D01*
X52038000Y-58426250D01*
X52038000Y-57277000D01*
X52292000Y-57277000D01*
X52292000Y-58426250D01*
X52450750Y-58585000D01*
X53291309Y-58585000D01*
X53524698Y-58488327D01*
X53703327Y-58309699D01*
X53800000Y-58076310D01*
X53800000Y-57435750D01*
X53641250Y-57277000D01*
X52292000Y-57277000D01*
X52038000Y-57277000D01*
X50688750Y-57277000D01*
X50530000Y-57435750D01*
X49553464Y-57435750D01*
X49553464Y-56350000D01*
X49529697Y-56223690D01*
X50530000Y-56223690D01*
X50530000Y-56864250D01*
X50688750Y-57023000D01*
X52038000Y-57023000D01*
X52038000Y-55873750D01*
X52292000Y-55873750D01*
X52292000Y-57023000D01*
X53641250Y-57023000D01*
X53800000Y-56864250D01*
X53800000Y-56223690D01*
X53703327Y-55990301D01*
X53524698Y-55811673D01*
X53291309Y-55715000D01*
X52450750Y-55715000D01*
X52292000Y-55873750D01*
X52038000Y-55873750D01*
X51879250Y-55715000D01*
X51038691Y-55715000D01*
X50805302Y-55811673D01*
X50626673Y-55990301D01*
X50530000Y-56223690D01*
X49529697Y-56223690D01*
X49526897Y-56208810D01*
X49443454Y-56079135D01*
X49316134Y-55992141D01*
X49165000Y-55961536D01*
X47499288Y-55961536D01*
X47068502Y-55530750D01*
X65350000Y-55530750D01*
X65350000Y-55696310D01*
X65446673Y-55929699D01*
X65625302Y-56108327D01*
X65858691Y-56205000D01*
X66549250Y-56205000D01*
X66708000Y-56046250D01*
X66708000Y-55372000D01*
X65508750Y-55372000D01*
X65350000Y-55530750D01*
X47068502Y-55530750D01*
X46507400Y-54969648D01*
X46507400Y-54871464D01*
X48768000Y-54871464D01*
X48909190Y-54844897D01*
X49038865Y-54761454D01*
X49125859Y-54634134D01*
X49156464Y-54483000D01*
X49156464Y-54006750D01*
X49911000Y-54006750D01*
X49911000Y-54672809D01*
X50007673Y-54906198D01*
X50186301Y-55084827D01*
X50419690Y-55181500D01*
X51784250Y-55181500D01*
X51943000Y-55022750D01*
X51943000Y-53848000D01*
X52197000Y-53848000D01*
X52197000Y-55022750D01*
X52355750Y-55181500D01*
X53720310Y-55181500D01*
X53953699Y-55084827D01*
X54132327Y-54906198D01*
X54229000Y-54672809D01*
X54229000Y-54006750D01*
X54070250Y-53848000D01*
X52197000Y-53848000D01*
X51943000Y-53848000D01*
X50069750Y-53848000D01*
X49911000Y-54006750D01*
X49156464Y-54006750D01*
X49156464Y-53720750D01*
X54445000Y-53720750D01*
X54445000Y-54561309D01*
X54541673Y-54794698D01*
X54720301Y-54973327D01*
X54953690Y-55070000D01*
X55594250Y-55070000D01*
X55753000Y-54911250D01*
X55753000Y-53562000D01*
X56007000Y-53562000D01*
X56007000Y-54911250D01*
X56165750Y-55070000D01*
X56806310Y-55070000D01*
X57039699Y-54973327D01*
X57218327Y-54794698D01*
X57315000Y-54561309D01*
X57315000Y-53720750D01*
X57156250Y-53562000D01*
X56007000Y-53562000D01*
X55753000Y-53562000D01*
X54603750Y-53562000D01*
X54445000Y-53720750D01*
X49156464Y-53720750D01*
X49156464Y-52769191D01*
X49911000Y-52769191D01*
X49911000Y-53435250D01*
X50069750Y-53594000D01*
X51943000Y-53594000D01*
X51943000Y-52419250D01*
X52197000Y-52419250D01*
X52197000Y-53594000D01*
X54070250Y-53594000D01*
X54229000Y-53435250D01*
X54229000Y-53371750D01*
X58039000Y-53371750D01*
X58039000Y-53974309D01*
X58135673Y-54207698D01*
X58314301Y-54386327D01*
X58547690Y-54483000D01*
X59404250Y-54483000D01*
X59563000Y-54324250D01*
X59563000Y-53213000D01*
X59817000Y-53213000D01*
X59817000Y-54324250D01*
X59975750Y-54483000D01*
X60832310Y-54483000D01*
X61065699Y-54386327D01*
X61244327Y-54207698D01*
X61341000Y-53974309D01*
X61341000Y-53371750D01*
X61182250Y-53213000D01*
X59817000Y-53213000D01*
X59563000Y-53213000D01*
X58197750Y-53213000D01*
X58039000Y-53371750D01*
X54229000Y-53371750D01*
X54229000Y-52769191D01*
X54132327Y-52535802D01*
X53953699Y-52357173D01*
X53836654Y-52308691D01*
X54445000Y-52308691D01*
X54445000Y-53149250D01*
X54603750Y-53308000D01*
X55753000Y-53308000D01*
X55753000Y-51958750D01*
X56007000Y-51958750D01*
X56007000Y-53308000D01*
X57156250Y-53308000D01*
X57315000Y-53149250D01*
X57315000Y-52308691D01*
X57269023Y-52197691D01*
X58039000Y-52197691D01*
X58039000Y-52800250D01*
X58197750Y-52959000D01*
X59563000Y-52959000D01*
X59563000Y-51847750D01*
X59817000Y-51847750D01*
X59817000Y-52959000D01*
X61182250Y-52959000D01*
X61341000Y-52800250D01*
X61341000Y-52197691D01*
X61244327Y-51964302D01*
X61065699Y-51785673D01*
X60832310Y-51689000D01*
X59975750Y-51689000D01*
X59817000Y-51847750D01*
X59563000Y-51847750D01*
X59404250Y-51689000D01*
X58547690Y-51689000D01*
X58314301Y-51785673D01*
X58135673Y-51964302D01*
X58039000Y-52197691D01*
X57269023Y-52197691D01*
X57218327Y-52075302D01*
X57039699Y-51896673D01*
X56806310Y-51800000D01*
X56165750Y-51800000D01*
X56007000Y-51958750D01*
X55753000Y-51958750D01*
X55594250Y-51800000D01*
X54953690Y-51800000D01*
X54720301Y-51896673D01*
X54541673Y-52075302D01*
X54445000Y-52308691D01*
X53836654Y-52308691D01*
X53720310Y-52260500D01*
X52355750Y-52260500D01*
X52197000Y-52419250D01*
X51943000Y-52419250D01*
X51784250Y-52260500D01*
X50419690Y-52260500D01*
X50186301Y-52357173D01*
X50007673Y-52535802D01*
X49911000Y-52769191D01*
X49156464Y-52769191D01*
X49156464Y-48387000D01*
X49129897Y-48245810D01*
X49046454Y-48116135D01*
X48919134Y-48029141D01*
X48768000Y-47998536D01*
X46304200Y-47998536D01*
X46304200Y-47993984D01*
X48247984Y-46050200D01*
X55069613Y-46050200D01*
X54948110Y-46100404D01*
X54737144Y-46311001D01*
X54622830Y-46586301D01*
X54622570Y-46884391D01*
X54736404Y-47159890D01*
X54787800Y-47211376D01*
X54787800Y-48187771D01*
X54722141Y-48283866D01*
X54706400Y-48361600D01*
X53982464Y-48361600D01*
X53982464Y-48323500D01*
X53955897Y-48182310D01*
X53872454Y-48052635D01*
X53745134Y-47965641D01*
X53594000Y-47935036D01*
X50546000Y-47935036D01*
X50404810Y-47961603D01*
X50275135Y-48045046D01*
X50188141Y-48172366D01*
X50157536Y-48323500D01*
X50157536Y-49974500D01*
X50184103Y-50115690D01*
X50267546Y-50245365D01*
X50394866Y-50332359D01*
X50546000Y-50362964D01*
X53594000Y-50362964D01*
X53735190Y-50336397D01*
X53864865Y-50252954D01*
X53951859Y-50125634D01*
X53982464Y-49974500D01*
X53982464Y-49936400D01*
X54691536Y-49936400D01*
X54691536Y-50435000D01*
X54718103Y-50576190D01*
X54801546Y-50705865D01*
X54928866Y-50792859D01*
X55080000Y-50823464D01*
X56680000Y-50823464D01*
X56821190Y-50796897D01*
X56950865Y-50713454D01*
X57037859Y-50586134D01*
X57040843Y-50571400D01*
X58290315Y-50571400D01*
X58312103Y-50687190D01*
X58395546Y-50816865D01*
X58522866Y-50903859D01*
X58674000Y-50934464D01*
X60706000Y-50934464D01*
X60847190Y-50907897D01*
X60976865Y-50824454D01*
X61063859Y-50697134D01*
X61094464Y-50546000D01*
X61094464Y-49022000D01*
X61067897Y-48880810D01*
X60984454Y-48751135D01*
X60857134Y-48664141D01*
X60706000Y-48633536D01*
X58674000Y-48633536D01*
X58532810Y-48660103D01*
X58403135Y-48743546D01*
X58316141Y-48870866D01*
X58290680Y-48996600D01*
X57068464Y-48996600D01*
X57068464Y-48545750D01*
X66850000Y-48545750D01*
X66850000Y-49186310D01*
X66946673Y-49419699D01*
X67125302Y-49598327D01*
X67358691Y-49695000D01*
X68199250Y-49695000D01*
X68358000Y-49536250D01*
X68358000Y-48387000D01*
X68612000Y-48387000D01*
X68612000Y-49536250D01*
X68770750Y-49695000D01*
X69611309Y-49695000D01*
X69844698Y-49598327D01*
X70023327Y-49419699D01*
X70120000Y-49186310D01*
X70120000Y-48545750D01*
X69961250Y-48387000D01*
X68612000Y-48387000D01*
X68358000Y-48387000D01*
X67008750Y-48387000D01*
X66850000Y-48545750D01*
X57068464Y-48545750D01*
X57068464Y-48435000D01*
X57041897Y-48293810D01*
X56958454Y-48164135D01*
X56831134Y-48077141D01*
X56680000Y-48046536D01*
X55956200Y-48046536D01*
X55956200Y-47333690D01*
X66850000Y-47333690D01*
X66850000Y-47974250D01*
X67008750Y-48133000D01*
X68358000Y-48133000D01*
X68358000Y-46983750D01*
X68612000Y-46983750D01*
X68612000Y-48133000D01*
X69961250Y-48133000D01*
X70120000Y-47974250D01*
X70120000Y-47333690D01*
X70023327Y-47100301D01*
X69844698Y-46921673D01*
X69611309Y-46825000D01*
X68770750Y-46825000D01*
X68612000Y-46983750D01*
X68358000Y-46983750D01*
X68199250Y-46825000D01*
X67358691Y-46825000D01*
X67125302Y-46921673D01*
X66946673Y-47100301D01*
X66850000Y-47333690D01*
X55956200Y-47333690D01*
X55956200Y-47211566D01*
X56006856Y-47160999D01*
X56121170Y-46885699D01*
X56121430Y-46587609D01*
X56007596Y-46312110D01*
X55796999Y-46101144D01*
X55674312Y-46050200D01*
X70624016Y-46050200D01*
X71214908Y-46641092D01*
X71309537Y-46704321D01*
X71676752Y-47071536D01*
X71485000Y-47071536D01*
X71343810Y-47098103D01*
X71214135Y-47181546D01*
X71127141Y-47308866D01*
X71096536Y-47460000D01*
X71096536Y-49060000D01*
X71123103Y-49201190D01*
X71206546Y-49330865D01*
X71333866Y-49417859D01*
X71485000Y-49448464D01*
X71900800Y-49448464D01*
X71900800Y-50310000D01*
X71945270Y-50533564D01*
X72060397Y-50705865D01*
X72071908Y-50723092D01*
X72896536Y-51547720D01*
X72896536Y-51760000D01*
X72923103Y-51901190D01*
X73006546Y-52030865D01*
X73063501Y-52069780D01*
X73014135Y-52101546D01*
X72927141Y-52228866D01*
X72896536Y-52380000D01*
X72896536Y-53030000D01*
X72923103Y-53171190D01*
X73006546Y-53300865D01*
X73063501Y-53339780D01*
X73014135Y-53371546D01*
X72927141Y-53498866D01*
X72896536Y-53650000D01*
X72896536Y-54300000D01*
X72923103Y-54441190D01*
X73006546Y-54570865D01*
X73063501Y-54609780D01*
X73014135Y-54641546D01*
X72927141Y-54768866D01*
X72896536Y-54920000D01*
X72896536Y-55132281D01*
X70960908Y-57067908D01*
X70834270Y-57257436D01*
X70789800Y-57481000D01*
X70789800Y-65680559D01*
X70404132Y-65938254D01*
X70106807Y-66383233D01*
X70002400Y-66908122D01*
X70002400Y-68981878D01*
X70106807Y-69506767D01*
X70404132Y-69951746D01*
X70849111Y-70249071D01*
X71374000Y-70353478D01*
X71898889Y-70249071D01*
X72343868Y-69951746D01*
X72641193Y-69506767D01*
X72745600Y-68981878D01*
X72745600Y-68072000D01*
X74748400Y-68072000D01*
X74748400Y-69062600D01*
X74920742Y-69675023D01*
X75314330Y-70174876D01*
X75869243Y-70486060D01*
X75995041Y-70516411D01*
X76247000Y-70396942D01*
X76247000Y-68072000D01*
X76501000Y-68072000D01*
X76501000Y-70396942D01*
X76752959Y-70516411D01*
X76878757Y-70486060D01*
X77433670Y-70174876D01*
X77827258Y-69675023D01*
X77999600Y-69062600D01*
X77999600Y-68072000D01*
X76501000Y-68072000D01*
X76247000Y-68072000D01*
X74748400Y-68072000D01*
X72745600Y-68072000D01*
X72745600Y-66908122D01*
X72729544Y-66827400D01*
X74748400Y-66827400D01*
X74748400Y-67818000D01*
X76247000Y-67818000D01*
X76247000Y-65493058D01*
X76501000Y-65493058D01*
X76501000Y-67818000D01*
X77999600Y-67818000D01*
X77999600Y-66827400D01*
X77827258Y-66214977D01*
X77433670Y-65715124D01*
X76878757Y-65403940D01*
X76752959Y-65373589D01*
X76501000Y-65493058D01*
X76247000Y-65493058D01*
X75995041Y-65373589D01*
X75869243Y-65403940D01*
X75314330Y-65715124D01*
X74920742Y-66214977D01*
X74748400Y-66827400D01*
X72729544Y-66827400D01*
X72641193Y-66383233D01*
X72343868Y-65938254D01*
X71958200Y-65680559D01*
X71958200Y-57722984D01*
X73722719Y-55958464D01*
X74985000Y-55958464D01*
X75126190Y-55931897D01*
X75255865Y-55848454D01*
X75342859Y-55721134D01*
X75373464Y-55570000D01*
X75373464Y-54920000D01*
X75346897Y-54778810D01*
X75263454Y-54649135D01*
X75206499Y-54610220D01*
X75255865Y-54578454D01*
X75269021Y-54559200D01*
X75831016Y-54559200D01*
X79553908Y-58282092D01*
X79743437Y-58408731D01*
X79967000Y-58453201D01*
X79967005Y-58453200D01*
X80060536Y-58453200D01*
X80060536Y-58469000D01*
X80087103Y-58610190D01*
X80170546Y-58739865D01*
X80297866Y-58826859D01*
X80449000Y-58857464D01*
X81349000Y-58857464D01*
X81365602Y-58854340D01*
X82970486Y-58854340D01*
X82970486Y-59170570D01*
X82997053Y-59311760D01*
X83080496Y-59441435D01*
X83207816Y-59528429D01*
X83358950Y-59559034D01*
X84159050Y-59559034D01*
X84300240Y-59532467D01*
X84429915Y-59449024D01*
X84516909Y-59321704D01*
X84547514Y-59170570D01*
X84547514Y-57369710D01*
X84520947Y-57228520D01*
X84437504Y-57098845D01*
X84310184Y-57011851D01*
X84159050Y-56981246D01*
X83358950Y-56981246D01*
X83217760Y-57007813D01*
X83088085Y-57091256D01*
X83001091Y-57218576D01*
X82970486Y-57369710D01*
X82970486Y-57685940D01*
X81737464Y-57685940D01*
X81737464Y-57269000D01*
X81710897Y-57127810D01*
X81627454Y-56998135D01*
X81500134Y-56911141D01*
X81464870Y-56904000D01*
X81475310Y-56904000D01*
X81708699Y-56807327D01*
X81887327Y-56628698D01*
X81984000Y-56395309D01*
X81984000Y-55954750D01*
X81825250Y-55796000D01*
X81026000Y-55796000D01*
X81026000Y-55816000D01*
X80772000Y-55816000D01*
X80772000Y-55796000D01*
X79972750Y-55796000D01*
X79814000Y-55954750D01*
X79814000Y-56395309D01*
X79910673Y-56628698D01*
X80089301Y-56807327D01*
X80322690Y-56904000D01*
X80324301Y-56904000D01*
X80307810Y-56907103D01*
X80178135Y-56990546D01*
X80091141Y-57117866D01*
X80082874Y-57158690D01*
X78477794Y-55553610D01*
X83673950Y-55553610D01*
X83673950Y-56294600D01*
X83770623Y-56527989D01*
X83949252Y-56706617D01*
X84182641Y-56803290D01*
X84423250Y-56803290D01*
X84582000Y-56644540D01*
X84582000Y-55394860D01*
X84836000Y-55394860D01*
X84836000Y-56644540D01*
X84994750Y-56803290D01*
X85235359Y-56803290D01*
X85468748Y-56706617D01*
X85647377Y-56527989D01*
X85744050Y-56294600D01*
X85744050Y-55553610D01*
X85585300Y-55394860D01*
X84836000Y-55394860D01*
X84582000Y-55394860D01*
X83832700Y-55394860D01*
X83673950Y-55553610D01*
X78477794Y-55553610D01*
X77866875Y-54942691D01*
X79814000Y-54942691D01*
X79814000Y-55383250D01*
X79972750Y-55542000D01*
X80772000Y-55542000D01*
X80772000Y-54592750D01*
X81026000Y-54592750D01*
X81026000Y-55542000D01*
X81825250Y-55542000D01*
X81984000Y-55383250D01*
X81984000Y-54942691D01*
X81887327Y-54709302D01*
X81708699Y-54530673D01*
X81475310Y-54434000D01*
X81184750Y-54434000D01*
X81026000Y-54592750D01*
X80772000Y-54592750D01*
X80613250Y-54434000D01*
X80322690Y-54434000D01*
X80089301Y-54530673D01*
X79910673Y-54709302D01*
X79814000Y-54942691D01*
X77866875Y-54942691D01*
X77165304Y-54241120D01*
X83673950Y-54241120D01*
X83673950Y-54982110D01*
X83832700Y-55140860D01*
X84582000Y-55140860D01*
X84582000Y-53891180D01*
X84836000Y-53891180D01*
X84836000Y-55140860D01*
X85585300Y-55140860D01*
X85744050Y-54982110D01*
X85744050Y-54241120D01*
X85647377Y-54007731D01*
X85468748Y-53829103D01*
X85235359Y-53732430D01*
X84994750Y-53732430D01*
X84836000Y-53891180D01*
X84582000Y-53891180D01*
X84423250Y-53732430D01*
X84182641Y-53732430D01*
X83949252Y-53829103D01*
X83770623Y-54007731D01*
X83673950Y-54241120D01*
X77165304Y-54241120D01*
X76486092Y-53561908D01*
X76296564Y-53435270D01*
X76073000Y-53390800D01*
X75270960Y-53390800D01*
X75263454Y-53379135D01*
X75206499Y-53340220D01*
X75255865Y-53308454D01*
X75269021Y-53289200D01*
X77470000Y-53289200D01*
X77693564Y-53244730D01*
X77883092Y-53118092D01*
X80066047Y-50935137D01*
X80070719Y-50959968D01*
X80154162Y-51089643D01*
X80281482Y-51176637D01*
X80432616Y-51207242D01*
X81332616Y-51207242D01*
X81349218Y-51204118D01*
X82954102Y-51204118D01*
X82954102Y-51520348D01*
X82980669Y-51661538D01*
X83064112Y-51791213D01*
X83191432Y-51878207D01*
X83342566Y-51908812D01*
X84142666Y-51908812D01*
X84283856Y-51882245D01*
X84413531Y-51798802D01*
X84500525Y-51671482D01*
X84531130Y-51520348D01*
X84531130Y-49719488D01*
X84504563Y-49578298D01*
X84421120Y-49448623D01*
X84293800Y-49361629D01*
X84142666Y-49331024D01*
X83342566Y-49331024D01*
X83201376Y-49357591D01*
X83071701Y-49441034D01*
X82984707Y-49568354D01*
X82954102Y-49719488D01*
X82954102Y-50035718D01*
X81721080Y-50035718D01*
X81721080Y-49618778D01*
X81694513Y-49477588D01*
X81611070Y-49347913D01*
X81483750Y-49260919D01*
X81448486Y-49253778D01*
X81458926Y-49253778D01*
X81692315Y-49157105D01*
X81870943Y-48978476D01*
X81967616Y-48745087D01*
X81967616Y-48304528D01*
X81808866Y-48145778D01*
X81009616Y-48145778D01*
X81009616Y-48165778D01*
X80755616Y-48165778D01*
X80755616Y-48145778D01*
X79956366Y-48145778D01*
X79797616Y-48304528D01*
X79797616Y-48745087D01*
X79894289Y-48978476D01*
X80072917Y-49157105D01*
X80306306Y-49253778D01*
X80307917Y-49253778D01*
X80291426Y-49256881D01*
X80161751Y-49340324D01*
X80074757Y-49467644D01*
X80044152Y-49618778D01*
X80044152Y-49634578D01*
X79956222Y-49634578D01*
X79732658Y-49679048D01*
X79646937Y-49736325D01*
X79543130Y-49805686D01*
X77228016Y-52120800D01*
X75270960Y-52120800D01*
X75263454Y-52109135D01*
X75206499Y-52070220D01*
X75255865Y-52038454D01*
X75342859Y-51911134D01*
X75373464Y-51760000D01*
X75373464Y-51110000D01*
X75346897Y-50968810D01*
X75263454Y-50839135D01*
X75136134Y-50752141D01*
X74985000Y-50721536D01*
X73722720Y-50721536D01*
X73069200Y-50068016D01*
X73069200Y-49448464D01*
X73485000Y-49448464D01*
X73626190Y-49421897D01*
X73755865Y-49338454D01*
X73842859Y-49211134D01*
X73873464Y-49060000D01*
X73873464Y-47903388D01*
X83657566Y-47903388D01*
X83657566Y-48644378D01*
X83754239Y-48877767D01*
X83932868Y-49056395D01*
X84166257Y-49153068D01*
X84406866Y-49153068D01*
X84565616Y-48994318D01*
X84565616Y-47744638D01*
X84819616Y-47744638D01*
X84819616Y-48994318D01*
X84978366Y-49153068D01*
X85218975Y-49153068D01*
X85452364Y-49056395D01*
X85630993Y-48877767D01*
X85727666Y-48644378D01*
X85727666Y-47903388D01*
X85568916Y-47744638D01*
X84819616Y-47744638D01*
X84565616Y-47744638D01*
X83816316Y-47744638D01*
X83657566Y-47903388D01*
X73873464Y-47903388D01*
X73873464Y-47460000D01*
X73846897Y-47318810D01*
X73829948Y-47292469D01*
X79797616Y-47292469D01*
X79797616Y-47733028D01*
X79956366Y-47891778D01*
X80755616Y-47891778D01*
X80755616Y-46942528D01*
X81009616Y-46942528D01*
X81009616Y-47891778D01*
X81808866Y-47891778D01*
X81967616Y-47733028D01*
X81967616Y-47292469D01*
X81870943Y-47059080D01*
X81692315Y-46880451D01*
X81458926Y-46783778D01*
X81168366Y-46783778D01*
X81009616Y-46942528D01*
X80755616Y-46942528D01*
X80596866Y-46783778D01*
X80306306Y-46783778D01*
X80072917Y-46880451D01*
X79894289Y-47059080D01*
X79797616Y-47292469D01*
X73829948Y-47292469D01*
X73763454Y-47189135D01*
X73636134Y-47102141D01*
X73485000Y-47071536D01*
X73069200Y-47071536D01*
X73069200Y-47053605D01*
X73069201Y-47053600D01*
X73024731Y-46830037D01*
X72898092Y-46640508D01*
X72848482Y-46590898D01*
X83657566Y-46590898D01*
X83657566Y-47331888D01*
X83816316Y-47490638D01*
X84565616Y-47490638D01*
X84565616Y-46240958D01*
X84819616Y-46240958D01*
X84819616Y-47490638D01*
X85568916Y-47490638D01*
X85727666Y-47331888D01*
X85727666Y-46590898D01*
X85630993Y-46357509D01*
X85452364Y-46178881D01*
X85218975Y-46082208D01*
X84978366Y-46082208D01*
X84819616Y-46240958D01*
X84565616Y-46240958D01*
X84406866Y-46082208D01*
X84166257Y-46082208D01*
X83932868Y-46178881D01*
X83754239Y-46357509D01*
X83657566Y-46590898D01*
X72848482Y-46590898D01*
X72072492Y-45814908D01*
X71977864Y-45751680D01*
X71279092Y-45052908D01*
X71173618Y-44982433D01*
X71089564Y-44926270D01*
X70866000Y-44881800D01*
X48006000Y-44881800D01*
X47782436Y-44926270D01*
X47698382Y-44982433D01*
X47592908Y-45052908D01*
X45306908Y-47338908D01*
X45180270Y-47528436D01*
X45135800Y-47752000D01*
X45135800Y-47998536D01*
X42672000Y-47998536D01*
X42530810Y-48025103D01*
X42401135Y-48108546D01*
X42314141Y-48235866D01*
X42283536Y-48387000D01*
X41096000Y-48387000D01*
X41096000Y-40952316D01*
X43658657Y-40952316D01*
X43959611Y-41680680D01*
X44516389Y-42238431D01*
X45244226Y-42540655D01*
X46032316Y-42541343D01*
X46760680Y-42240389D01*
X47318431Y-41683611D01*
X47620655Y-40955774D01*
X47620658Y-40952316D01*
X78658657Y-40952316D01*
X78959611Y-41680680D01*
X79516389Y-42238431D01*
X80244226Y-42540655D01*
X81032316Y-42541343D01*
X81760680Y-42240389D01*
X82318431Y-41683611D01*
X82620655Y-40955774D01*
X82621343Y-40167684D01*
X82320389Y-39439320D01*
X81763611Y-38881569D01*
X81035774Y-38579345D01*
X80247684Y-38578657D01*
X79519320Y-38879611D01*
X78961569Y-39436389D01*
X78659345Y-40164226D01*
X78658657Y-40952316D01*
X47620658Y-40952316D01*
X47621343Y-40167684D01*
X47320389Y-39439320D01*
X46763611Y-38881569D01*
X46035774Y-38579345D01*
X45247684Y-38578657D01*
X44519320Y-38879611D01*
X43961569Y-39436389D01*
X43659345Y-40164226D01*
X43658657Y-40952316D01*
X41096000Y-40952316D01*
X41096000Y-36016000D01*
X87503000Y-36016000D01*
X87503000Y-39078712D01*
X87503000Y-39078712D01*
G37*
X87503000Y-39078712D02*
X86277856Y-40303856D01*
X86019073Y-40691152D01*
X86019073Y-40691153D01*
X85928200Y-41148000D01*
X85928200Y-49289512D01*
X85886688Y-49331024D01*
X85242566Y-49331024D01*
X85101376Y-49357591D01*
X84971701Y-49441034D01*
X84884707Y-49568354D01*
X84854102Y-49719488D01*
X84854102Y-51520348D01*
X84880669Y-51661538D01*
X84964112Y-51791213D01*
X85091432Y-51878207D01*
X85242566Y-51908812D01*
X86042666Y-51908812D01*
X86183856Y-51882245D01*
X86292261Y-51812489D01*
X86742930Y-51722845D01*
X87130226Y-51464062D01*
X87503000Y-51091288D01*
X87503000Y-57076340D01*
X86304567Y-57076340D01*
X86210184Y-57011851D01*
X86059050Y-56981246D01*
X85258950Y-56981246D01*
X85117760Y-57007813D01*
X84988085Y-57091256D01*
X84901091Y-57218576D01*
X84870486Y-57369710D01*
X84870486Y-59170570D01*
X84897053Y-59311760D01*
X84980496Y-59441435D01*
X85107816Y-59528429D01*
X85258950Y-59559034D01*
X86059050Y-59559034D01*
X86200240Y-59532467D01*
X86306735Y-59463940D01*
X87503000Y-59463940D01*
X87503000Y-77014000D01*
X41096000Y-77014000D01*
X41096000Y-68072000D01*
X46634400Y-68072000D01*
X46634400Y-69062600D01*
X46806742Y-69675023D01*
X47200330Y-70174876D01*
X47755243Y-70486060D01*
X47881041Y-70516411D01*
X48133000Y-70396942D01*
X48133000Y-68072000D01*
X48387000Y-68072000D01*
X48387000Y-70396942D01*
X48638959Y-70516411D01*
X48764757Y-70486060D01*
X49319670Y-70174876D01*
X49713258Y-69675023D01*
X49885600Y-69062600D01*
X49885600Y-68072000D01*
X48387000Y-68072000D01*
X48133000Y-68072000D01*
X46634400Y-68072000D01*
X41096000Y-68072000D01*
X41096000Y-66827400D01*
X46634400Y-66827400D01*
X46634400Y-67818000D01*
X48133000Y-67818000D01*
X48133000Y-65493058D01*
X48387000Y-65493058D01*
X48387000Y-67818000D01*
X49885600Y-67818000D01*
X49885600Y-66908122D01*
X51888400Y-66908122D01*
X51888400Y-68981878D01*
X51992807Y-69506767D01*
X52290132Y-69951746D01*
X52735111Y-70249071D01*
X53260000Y-70353478D01*
X53784889Y-70249071D01*
X54229868Y-69951746D01*
X54527193Y-69506767D01*
X54631600Y-68981878D01*
X54631600Y-66908122D01*
X58398400Y-66908122D01*
X58398400Y-68981878D01*
X58502807Y-69506767D01*
X58800132Y-69951746D01*
X59245111Y-70249071D01*
X59770000Y-70353478D01*
X60294889Y-70249071D01*
X60739868Y-69951746D01*
X61037193Y-69506767D01*
X61141600Y-68981878D01*
X61141600Y-66908122D01*
X61037193Y-66383233D01*
X60739868Y-65938254D01*
X60354200Y-65680559D01*
X60354200Y-61121984D01*
X63487984Y-57988200D01*
X67564000Y-57988200D01*
X67787564Y-57943730D01*
X67977092Y-57817092D01*
X69628089Y-56166094D01*
X69628092Y-56166092D01*
X69744322Y-55992141D01*
X69754731Y-55976563D01*
X69799201Y-55753000D01*
X69799200Y-55752995D01*
X69799200Y-54610005D01*
X69799201Y-54610000D01*
X69754731Y-54386437D01*
X69628092Y-54196908D01*
X68993092Y-53561908D01*
X68803564Y-53435270D01*
X68580000Y-53390800D01*
X67970960Y-53390800D01*
X67963454Y-53379135D01*
X67906499Y-53340220D01*
X67955865Y-53308454D01*
X67969021Y-53289200D01*
X68973016Y-53289200D01*
X69900800Y-54216984D01*
X69900800Y-56273017D01*
X64356908Y-61816908D01*
X64230270Y-62006436D01*
X64185800Y-62230000D01*
X64185800Y-65680559D01*
X63800132Y-65938254D01*
X63502807Y-66383233D01*
X63398400Y-66908122D01*
X63398400Y-68981878D01*
X63502807Y-69506767D01*
X63800132Y-69951746D01*
X64245111Y-70249071D01*
X64770000Y-70353478D01*
X65294889Y-70249071D01*
X65739868Y-69951746D01*
X66037193Y-69506767D01*
X66141600Y-68981878D01*
X66141600Y-66908122D01*
X66037193Y-66383233D01*
X65739868Y-65938254D01*
X65354200Y-65680559D01*
X65354200Y-62471984D01*
X70898089Y-56928094D01*
X70898092Y-56928092D01*
X71024730Y-56738564D01*
X71024731Y-56738563D01*
X71069201Y-56515000D01*
X71069200Y-56514995D01*
X71069200Y-53975000D01*
X71024730Y-53751436D01*
X70898092Y-53561908D01*
X69628092Y-52291908D01*
X69581086Y-52260500D01*
X69438564Y-52165270D01*
X69215000Y-52120800D01*
X67970960Y-52120800D01*
X67963454Y-52109135D01*
X67906499Y-52070220D01*
X67955865Y-52038454D01*
X68042859Y-51911134D01*
X68073464Y-51760000D01*
X68073464Y-51110000D01*
X68046897Y-50968810D01*
X67963454Y-50839135D01*
X67836134Y-50752141D01*
X67685000Y-50721536D01*
X65985000Y-50721536D01*
X65843810Y-50748103D01*
X65714135Y-50831546D01*
X65627141Y-50958866D01*
X65596536Y-51110000D01*
X65596536Y-51760000D01*
X65623103Y-51901190D01*
X65706546Y-52030865D01*
X65763501Y-52069780D01*
X65714135Y-52101546D01*
X65627141Y-52228866D01*
X65596536Y-52380000D01*
X65596536Y-53030000D01*
X65623103Y-53171190D01*
X65706546Y-53300865D01*
X65763501Y-53339780D01*
X65714135Y-53371546D01*
X65627141Y-53498866D01*
X65596536Y-53650000D01*
X65596536Y-54300000D01*
X65614026Y-54392949D01*
X65446673Y-54560301D01*
X65350000Y-54793690D01*
X65350000Y-54959250D01*
X65508750Y-55118000D01*
X66708000Y-55118000D01*
X66708000Y-55098000D01*
X66962000Y-55098000D01*
X66962000Y-55118000D01*
X68161250Y-55118000D01*
X68320000Y-54959250D01*
X68320000Y-54793690D01*
X68223327Y-54560301D01*
X68222226Y-54559200D01*
X68338016Y-54559200D01*
X68630800Y-54851984D01*
X68630800Y-55511017D01*
X68231253Y-55910563D01*
X68320000Y-55696310D01*
X68320000Y-55530750D01*
X68161250Y-55372000D01*
X66962000Y-55372000D01*
X66962000Y-56046250D01*
X67120750Y-56205000D01*
X67811309Y-56205000D01*
X68025564Y-56116253D01*
X67322016Y-56819800D01*
X63246000Y-56819800D01*
X63022436Y-56864270D01*
X62907197Y-56941270D01*
X62832908Y-56990908D01*
X59356908Y-60466908D01*
X59230270Y-60656436D01*
X59185800Y-60880000D01*
X59185800Y-65680559D01*
X58800132Y-65938254D01*
X58502807Y-66383233D01*
X58398400Y-66908122D01*
X54631600Y-66908122D01*
X54527193Y-66383233D01*
X54229868Y-65938254D01*
X53784889Y-65640929D01*
X53260000Y-65536522D01*
X52735111Y-65640929D01*
X52290132Y-65938254D01*
X51992807Y-66383233D01*
X51888400Y-66908122D01*
X49885600Y-66908122D01*
X49885600Y-66827400D01*
X49713258Y-66214977D01*
X49319670Y-65715124D01*
X48764757Y-65403940D01*
X48638959Y-65373589D01*
X48387000Y-65493058D01*
X48133000Y-65493058D01*
X47881041Y-65373589D01*
X47755243Y-65403940D01*
X47200330Y-65715124D01*
X46806742Y-66214977D01*
X46634400Y-66827400D01*
X41096000Y-66827400D01*
X41096000Y-48387000D01*
X42283536Y-48387000D01*
X42283536Y-54483000D01*
X42310103Y-54624190D01*
X42393546Y-54753865D01*
X42520866Y-54840859D01*
X42672000Y-54871464D01*
X44932600Y-54871464D01*
X44932600Y-55295800D01*
X44992537Y-55597125D01*
X45163224Y-55852576D01*
X46776536Y-57465888D01*
X46776536Y-57950000D01*
X46803103Y-58091190D01*
X46886546Y-58220865D01*
X47013866Y-58307859D01*
X47165000Y-58338464D01*
X49165000Y-58338464D01*
X49306190Y-58311897D01*
X49435865Y-58228454D01*
X49522859Y-58101134D01*
X49553464Y-57950000D01*
X49553464Y-57435750D01*
X50530000Y-57435750D01*
X50530000Y-58076310D01*
X50626673Y-58309699D01*
X50805302Y-58488327D01*
X51038691Y-58585000D01*
X51879250Y-58585000D01*
X52038000Y-58426250D01*
X52038000Y-57277000D01*
X52292000Y-57277000D01*
X52292000Y-58426250D01*
X52450750Y-58585000D01*
X53291309Y-58585000D01*
X53524698Y-58488327D01*
X53703327Y-58309699D01*
X53800000Y-58076310D01*
X53800000Y-57435750D01*
X53641250Y-57277000D01*
X52292000Y-57277000D01*
X52038000Y-57277000D01*
X50688750Y-57277000D01*
X50530000Y-57435750D01*
X49553464Y-57435750D01*
X49553464Y-56350000D01*
X49529697Y-56223690D01*
X50530000Y-56223690D01*
X50530000Y-56864250D01*
X50688750Y-57023000D01*
X52038000Y-57023000D01*
X52038000Y-55873750D01*
X52292000Y-55873750D01*
X52292000Y-57023000D01*
X53641250Y-57023000D01*
X53800000Y-56864250D01*
X53800000Y-56223690D01*
X53703327Y-55990301D01*
X53524698Y-55811673D01*
X53291309Y-55715000D01*
X52450750Y-55715000D01*
X52292000Y-55873750D01*
X52038000Y-55873750D01*
X51879250Y-55715000D01*
X51038691Y-55715000D01*
X50805302Y-55811673D01*
X50626673Y-55990301D01*
X50530000Y-56223690D01*
X49529697Y-56223690D01*
X49526897Y-56208810D01*
X49443454Y-56079135D01*
X49316134Y-55992141D01*
X49165000Y-55961536D01*
X47499288Y-55961536D01*
X47068502Y-55530750D01*
X65350000Y-55530750D01*
X65350000Y-55696310D01*
X65446673Y-55929699D01*
X65625302Y-56108327D01*
X65858691Y-56205000D01*
X66549250Y-56205000D01*
X66708000Y-56046250D01*
X66708000Y-55372000D01*
X65508750Y-55372000D01*
X65350000Y-55530750D01*
X47068502Y-55530750D01*
X46507400Y-54969648D01*
X46507400Y-54871464D01*
X48768000Y-54871464D01*
X48909190Y-54844897D01*
X49038865Y-54761454D01*
X49125859Y-54634134D01*
X49156464Y-54483000D01*
X49156464Y-54006750D01*
X49911000Y-54006750D01*
X49911000Y-54672809D01*
X50007673Y-54906198D01*
X50186301Y-55084827D01*
X50419690Y-55181500D01*
X51784250Y-55181500D01*
X51943000Y-55022750D01*
X51943000Y-53848000D01*
X52197000Y-53848000D01*
X52197000Y-55022750D01*
X52355750Y-55181500D01*
X53720310Y-55181500D01*
X53953699Y-55084827D01*
X54132327Y-54906198D01*
X54229000Y-54672809D01*
X54229000Y-54006750D01*
X54070250Y-53848000D01*
X52197000Y-53848000D01*
X51943000Y-53848000D01*
X50069750Y-53848000D01*
X49911000Y-54006750D01*
X49156464Y-54006750D01*
X49156464Y-53720750D01*
X54445000Y-53720750D01*
X54445000Y-54561309D01*
X54541673Y-54794698D01*
X54720301Y-54973327D01*
X54953690Y-55070000D01*
X55594250Y-55070000D01*
X55753000Y-54911250D01*
X55753000Y-53562000D01*
X56007000Y-53562000D01*
X56007000Y-54911250D01*
X56165750Y-55070000D01*
X56806310Y-55070000D01*
X57039699Y-54973327D01*
X57218327Y-54794698D01*
X57315000Y-54561309D01*
X57315000Y-53720750D01*
X57156250Y-53562000D01*
X56007000Y-53562000D01*
X55753000Y-53562000D01*
X54603750Y-53562000D01*
X54445000Y-53720750D01*
X49156464Y-53720750D01*
X49156464Y-52769191D01*
X49911000Y-52769191D01*
X49911000Y-53435250D01*
X50069750Y-53594000D01*
X51943000Y-53594000D01*
X51943000Y-52419250D01*
X52197000Y-52419250D01*
X52197000Y-53594000D01*
X54070250Y-53594000D01*
X54229000Y-53435250D01*
X54229000Y-53371750D01*
X58039000Y-53371750D01*
X58039000Y-53974309D01*
X58135673Y-54207698D01*
X58314301Y-54386327D01*
X58547690Y-54483000D01*
X59404250Y-54483000D01*
X59563000Y-54324250D01*
X59563000Y-53213000D01*
X59817000Y-53213000D01*
X59817000Y-54324250D01*
X59975750Y-54483000D01*
X60832310Y-54483000D01*
X61065699Y-54386327D01*
X61244327Y-54207698D01*
X61341000Y-53974309D01*
X61341000Y-53371750D01*
X61182250Y-53213000D01*
X59817000Y-53213000D01*
X59563000Y-53213000D01*
X58197750Y-53213000D01*
X58039000Y-53371750D01*
X54229000Y-53371750D01*
X54229000Y-52769191D01*
X54132327Y-52535802D01*
X53953699Y-52357173D01*
X53836654Y-52308691D01*
X54445000Y-52308691D01*
X54445000Y-53149250D01*
X54603750Y-53308000D01*
X55753000Y-53308000D01*
X55753000Y-51958750D01*
X56007000Y-51958750D01*
X56007000Y-53308000D01*
X57156250Y-53308000D01*
X57315000Y-53149250D01*
X57315000Y-52308691D01*
X57269023Y-52197691D01*
X58039000Y-52197691D01*
X58039000Y-52800250D01*
X58197750Y-52959000D01*
X59563000Y-52959000D01*
X59563000Y-51847750D01*
X59817000Y-51847750D01*
X59817000Y-52959000D01*
X61182250Y-52959000D01*
X61341000Y-52800250D01*
X61341000Y-52197691D01*
X61244327Y-51964302D01*
X61065699Y-51785673D01*
X60832310Y-51689000D01*
X59975750Y-51689000D01*
X59817000Y-51847750D01*
X59563000Y-51847750D01*
X59404250Y-51689000D01*
X58547690Y-51689000D01*
X58314301Y-51785673D01*
X58135673Y-51964302D01*
X58039000Y-52197691D01*
X57269023Y-52197691D01*
X57218327Y-52075302D01*
X57039699Y-51896673D01*
X56806310Y-51800000D01*
X56165750Y-51800000D01*
X56007000Y-51958750D01*
X55753000Y-51958750D01*
X55594250Y-51800000D01*
X54953690Y-51800000D01*
X54720301Y-51896673D01*
X54541673Y-52075302D01*
X54445000Y-52308691D01*
X53836654Y-52308691D01*
X53720310Y-52260500D01*
X52355750Y-52260500D01*
X52197000Y-52419250D01*
X51943000Y-52419250D01*
X51784250Y-52260500D01*
X50419690Y-52260500D01*
X50186301Y-52357173D01*
X50007673Y-52535802D01*
X49911000Y-52769191D01*
X49156464Y-52769191D01*
X49156464Y-48387000D01*
X49129897Y-48245810D01*
X49046454Y-48116135D01*
X48919134Y-48029141D01*
X48768000Y-47998536D01*
X46304200Y-47998536D01*
X46304200Y-47993984D01*
X48247984Y-46050200D01*
X55069613Y-46050200D01*
X54948110Y-46100404D01*
X54737144Y-46311001D01*
X54622830Y-46586301D01*
X54622570Y-46884391D01*
X54736404Y-47159890D01*
X54787800Y-47211376D01*
X54787800Y-48187771D01*
X54722141Y-48283866D01*
X54706400Y-48361600D01*
X53982464Y-48361600D01*
X53982464Y-48323500D01*
X53955897Y-48182310D01*
X53872454Y-48052635D01*
X53745134Y-47965641D01*
X53594000Y-47935036D01*
X50546000Y-47935036D01*
X50404810Y-47961603D01*
X50275135Y-48045046D01*
X50188141Y-48172366D01*
X50157536Y-48323500D01*
X50157536Y-49974500D01*
X50184103Y-50115690D01*
X50267546Y-50245365D01*
X50394866Y-50332359D01*
X50546000Y-50362964D01*
X53594000Y-50362964D01*
X53735190Y-50336397D01*
X53864865Y-50252954D01*
X53951859Y-50125634D01*
X53982464Y-49974500D01*
X53982464Y-49936400D01*
X54691536Y-49936400D01*
X54691536Y-50435000D01*
X54718103Y-50576190D01*
X54801546Y-50705865D01*
X54928866Y-50792859D01*
X55080000Y-50823464D01*
X56680000Y-50823464D01*
X56821190Y-50796897D01*
X56950865Y-50713454D01*
X57037859Y-50586134D01*
X57040843Y-50571400D01*
X58290315Y-50571400D01*
X58312103Y-50687190D01*
X58395546Y-50816865D01*
X58522866Y-50903859D01*
X58674000Y-50934464D01*
X60706000Y-50934464D01*
X60847190Y-50907897D01*
X60976865Y-50824454D01*
X61063859Y-50697134D01*
X61094464Y-50546000D01*
X61094464Y-49022000D01*
X61067897Y-48880810D01*
X60984454Y-48751135D01*
X60857134Y-48664141D01*
X60706000Y-48633536D01*
X58674000Y-48633536D01*
X58532810Y-48660103D01*
X58403135Y-48743546D01*
X58316141Y-48870866D01*
X58290680Y-48996600D01*
X57068464Y-48996600D01*
X57068464Y-48545750D01*
X66850000Y-48545750D01*
X66850000Y-49186310D01*
X66946673Y-49419699D01*
X67125302Y-49598327D01*
X67358691Y-49695000D01*
X68199250Y-49695000D01*
X68358000Y-49536250D01*
X68358000Y-48387000D01*
X68612000Y-48387000D01*
X68612000Y-49536250D01*
X68770750Y-49695000D01*
X69611309Y-49695000D01*
X69844698Y-49598327D01*
X70023327Y-49419699D01*
X70120000Y-49186310D01*
X70120000Y-48545750D01*
X69961250Y-48387000D01*
X68612000Y-48387000D01*
X68358000Y-48387000D01*
X67008750Y-48387000D01*
X66850000Y-48545750D01*
X57068464Y-48545750D01*
X57068464Y-48435000D01*
X57041897Y-48293810D01*
X56958454Y-48164135D01*
X56831134Y-48077141D01*
X56680000Y-48046536D01*
X55956200Y-48046536D01*
X55956200Y-47333690D01*
X66850000Y-47333690D01*
X66850000Y-47974250D01*
X67008750Y-48133000D01*
X68358000Y-48133000D01*
X68358000Y-46983750D01*
X68612000Y-46983750D01*
X68612000Y-48133000D01*
X69961250Y-48133000D01*
X70120000Y-47974250D01*
X70120000Y-47333690D01*
X70023327Y-47100301D01*
X69844698Y-46921673D01*
X69611309Y-46825000D01*
X68770750Y-46825000D01*
X68612000Y-46983750D01*
X68358000Y-46983750D01*
X68199250Y-46825000D01*
X67358691Y-46825000D01*
X67125302Y-46921673D01*
X66946673Y-47100301D01*
X66850000Y-47333690D01*
X55956200Y-47333690D01*
X55956200Y-47211566D01*
X56006856Y-47160999D01*
X56121170Y-46885699D01*
X56121430Y-46587609D01*
X56007596Y-46312110D01*
X55796999Y-46101144D01*
X55674312Y-46050200D01*
X70624016Y-46050200D01*
X71214908Y-46641092D01*
X71309537Y-46704321D01*
X71676752Y-47071536D01*
X71485000Y-47071536D01*
X71343810Y-47098103D01*
X71214135Y-47181546D01*
X71127141Y-47308866D01*
X71096536Y-47460000D01*
X71096536Y-49060000D01*
X71123103Y-49201190D01*
X71206546Y-49330865D01*
X71333866Y-49417859D01*
X71485000Y-49448464D01*
X71900800Y-49448464D01*
X71900800Y-50310000D01*
X71945270Y-50533564D01*
X72060397Y-50705865D01*
X72071908Y-50723092D01*
X72896536Y-51547720D01*
X72896536Y-51760000D01*
X72923103Y-51901190D01*
X73006546Y-52030865D01*
X73063501Y-52069780D01*
X73014135Y-52101546D01*
X72927141Y-52228866D01*
X72896536Y-52380000D01*
X72896536Y-53030000D01*
X72923103Y-53171190D01*
X73006546Y-53300865D01*
X73063501Y-53339780D01*
X73014135Y-53371546D01*
X72927141Y-53498866D01*
X72896536Y-53650000D01*
X72896536Y-54300000D01*
X72923103Y-54441190D01*
X73006546Y-54570865D01*
X73063501Y-54609780D01*
X73014135Y-54641546D01*
X72927141Y-54768866D01*
X72896536Y-54920000D01*
X72896536Y-55132281D01*
X70960908Y-57067908D01*
X70834270Y-57257436D01*
X70789800Y-57481000D01*
X70789800Y-65680559D01*
X70404132Y-65938254D01*
X70106807Y-66383233D01*
X70002400Y-66908122D01*
X70002400Y-68981878D01*
X70106807Y-69506767D01*
X70404132Y-69951746D01*
X70849111Y-70249071D01*
X71374000Y-70353478D01*
X71898889Y-70249071D01*
X72343868Y-69951746D01*
X72641193Y-69506767D01*
X72745600Y-68981878D01*
X72745600Y-68072000D01*
X74748400Y-68072000D01*
X74748400Y-69062600D01*
X74920742Y-69675023D01*
X75314330Y-70174876D01*
X75869243Y-70486060D01*
X75995041Y-70516411D01*
X76247000Y-70396942D01*
X76247000Y-68072000D01*
X76501000Y-68072000D01*
X76501000Y-70396942D01*
X76752959Y-70516411D01*
X76878757Y-70486060D01*
X77433670Y-70174876D01*
X77827258Y-69675023D01*
X77999600Y-69062600D01*
X77999600Y-68072000D01*
X76501000Y-68072000D01*
X76247000Y-68072000D01*
X74748400Y-68072000D01*
X72745600Y-68072000D01*
X72745600Y-66908122D01*
X72729544Y-66827400D01*
X74748400Y-66827400D01*
X74748400Y-67818000D01*
X76247000Y-67818000D01*
X76247000Y-65493058D01*
X76501000Y-65493058D01*
X76501000Y-67818000D01*
X77999600Y-67818000D01*
X77999600Y-66827400D01*
X77827258Y-66214977D01*
X77433670Y-65715124D01*
X76878757Y-65403940D01*
X76752959Y-65373589D01*
X76501000Y-65493058D01*
X76247000Y-65493058D01*
X75995041Y-65373589D01*
X75869243Y-65403940D01*
X75314330Y-65715124D01*
X74920742Y-66214977D01*
X74748400Y-66827400D01*
X72729544Y-66827400D01*
X72641193Y-66383233D01*
X72343868Y-65938254D01*
X71958200Y-65680559D01*
X71958200Y-57722984D01*
X73722719Y-55958464D01*
X74985000Y-55958464D01*
X75126190Y-55931897D01*
X75255865Y-55848454D01*
X75342859Y-55721134D01*
X75373464Y-55570000D01*
X75373464Y-54920000D01*
X75346897Y-54778810D01*
X75263454Y-54649135D01*
X75206499Y-54610220D01*
X75255865Y-54578454D01*
X75269021Y-54559200D01*
X75831016Y-54559200D01*
X79553908Y-58282092D01*
X79743437Y-58408731D01*
X79967000Y-58453201D01*
X79967005Y-58453200D01*
X80060536Y-58453200D01*
X80060536Y-58469000D01*
X80087103Y-58610190D01*
X80170546Y-58739865D01*
X80297866Y-58826859D01*
X80449000Y-58857464D01*
X81349000Y-58857464D01*
X81365602Y-58854340D01*
X82970486Y-58854340D01*
X82970486Y-59170570D01*
X82997053Y-59311760D01*
X83080496Y-59441435D01*
X83207816Y-59528429D01*
X83358950Y-59559034D01*
X84159050Y-59559034D01*
X84300240Y-59532467D01*
X84429915Y-59449024D01*
X84516909Y-59321704D01*
X84547514Y-59170570D01*
X84547514Y-57369710D01*
X84520947Y-57228520D01*
X84437504Y-57098845D01*
X84310184Y-57011851D01*
X84159050Y-56981246D01*
X83358950Y-56981246D01*
X83217760Y-57007813D01*
X83088085Y-57091256D01*
X83001091Y-57218576D01*
X82970486Y-57369710D01*
X82970486Y-57685940D01*
X81737464Y-57685940D01*
X81737464Y-57269000D01*
X81710897Y-57127810D01*
X81627454Y-56998135D01*
X81500134Y-56911141D01*
X81464870Y-56904000D01*
X81475310Y-56904000D01*
X81708699Y-56807327D01*
X81887327Y-56628698D01*
X81984000Y-56395309D01*
X81984000Y-55954750D01*
X81825250Y-55796000D01*
X81026000Y-55796000D01*
X81026000Y-55816000D01*
X80772000Y-55816000D01*
X80772000Y-55796000D01*
X79972750Y-55796000D01*
X79814000Y-55954750D01*
X79814000Y-56395309D01*
X79910673Y-56628698D01*
X80089301Y-56807327D01*
X80322690Y-56904000D01*
X80324301Y-56904000D01*
X80307810Y-56907103D01*
X80178135Y-56990546D01*
X80091141Y-57117866D01*
X80082874Y-57158690D01*
X78477794Y-55553610D01*
X83673950Y-55553610D01*
X83673950Y-56294600D01*
X83770623Y-56527989D01*
X83949252Y-56706617D01*
X84182641Y-56803290D01*
X84423250Y-56803290D01*
X84582000Y-56644540D01*
X84582000Y-55394860D01*
X84836000Y-55394860D01*
X84836000Y-56644540D01*
X84994750Y-56803290D01*
X85235359Y-56803290D01*
X85468748Y-56706617D01*
X85647377Y-56527989D01*
X85744050Y-56294600D01*
X85744050Y-55553610D01*
X85585300Y-55394860D01*
X84836000Y-55394860D01*
X84582000Y-55394860D01*
X83832700Y-55394860D01*
X83673950Y-55553610D01*
X78477794Y-55553610D01*
X77866875Y-54942691D01*
X79814000Y-54942691D01*
X79814000Y-55383250D01*
X79972750Y-55542000D01*
X80772000Y-55542000D01*
X80772000Y-54592750D01*
X81026000Y-54592750D01*
X81026000Y-55542000D01*
X81825250Y-55542000D01*
X81984000Y-55383250D01*
X81984000Y-54942691D01*
X81887327Y-54709302D01*
X81708699Y-54530673D01*
X81475310Y-54434000D01*
X81184750Y-54434000D01*
X81026000Y-54592750D01*
X80772000Y-54592750D01*
X80613250Y-54434000D01*
X80322690Y-54434000D01*
X80089301Y-54530673D01*
X79910673Y-54709302D01*
X79814000Y-54942691D01*
X77866875Y-54942691D01*
X77165304Y-54241120D01*
X83673950Y-54241120D01*
X83673950Y-54982110D01*
X83832700Y-55140860D01*
X84582000Y-55140860D01*
X84582000Y-53891180D01*
X84836000Y-53891180D01*
X84836000Y-55140860D01*
X85585300Y-55140860D01*
X85744050Y-54982110D01*
X85744050Y-54241120D01*
X85647377Y-54007731D01*
X85468748Y-53829103D01*
X85235359Y-53732430D01*
X84994750Y-53732430D01*
X84836000Y-53891180D01*
X84582000Y-53891180D01*
X84423250Y-53732430D01*
X84182641Y-53732430D01*
X83949252Y-53829103D01*
X83770623Y-54007731D01*
X83673950Y-54241120D01*
X77165304Y-54241120D01*
X76486092Y-53561908D01*
X76296564Y-53435270D01*
X76073000Y-53390800D01*
X75270960Y-53390800D01*
X75263454Y-53379135D01*
X75206499Y-53340220D01*
X75255865Y-53308454D01*
X75269021Y-53289200D01*
X77470000Y-53289200D01*
X77693564Y-53244730D01*
X77883092Y-53118092D01*
X80066047Y-50935137D01*
X80070719Y-50959968D01*
X80154162Y-51089643D01*
X80281482Y-51176637D01*
X80432616Y-51207242D01*
X81332616Y-51207242D01*
X81349218Y-51204118D01*
X82954102Y-51204118D01*
X82954102Y-51520348D01*
X82980669Y-51661538D01*
X83064112Y-51791213D01*
X83191432Y-51878207D01*
X83342566Y-51908812D01*
X84142666Y-51908812D01*
X84283856Y-51882245D01*
X84413531Y-51798802D01*
X84500525Y-51671482D01*
X84531130Y-51520348D01*
X84531130Y-49719488D01*
X84504563Y-49578298D01*
X84421120Y-49448623D01*
X84293800Y-49361629D01*
X84142666Y-49331024D01*
X83342566Y-49331024D01*
X83201376Y-49357591D01*
X83071701Y-49441034D01*
X82984707Y-49568354D01*
X82954102Y-49719488D01*
X82954102Y-50035718D01*
X81721080Y-50035718D01*
X81721080Y-49618778D01*
X81694513Y-49477588D01*
X81611070Y-49347913D01*
X81483750Y-49260919D01*
X81448486Y-49253778D01*
X81458926Y-49253778D01*
X81692315Y-49157105D01*
X81870943Y-48978476D01*
X81967616Y-48745087D01*
X81967616Y-48304528D01*
X81808866Y-48145778D01*
X81009616Y-48145778D01*
X81009616Y-48165778D01*
X80755616Y-48165778D01*
X80755616Y-48145778D01*
X79956366Y-48145778D01*
X79797616Y-48304528D01*
X79797616Y-48745087D01*
X79894289Y-48978476D01*
X80072917Y-49157105D01*
X80306306Y-49253778D01*
X80307917Y-49253778D01*
X80291426Y-49256881D01*
X80161751Y-49340324D01*
X80074757Y-49467644D01*
X80044152Y-49618778D01*
X80044152Y-49634578D01*
X79956222Y-49634578D01*
X79732658Y-49679048D01*
X79646937Y-49736325D01*
X79543130Y-49805686D01*
X77228016Y-52120800D01*
X75270960Y-52120800D01*
X75263454Y-52109135D01*
X75206499Y-52070220D01*
X75255865Y-52038454D01*
X75342859Y-51911134D01*
X75373464Y-51760000D01*
X75373464Y-51110000D01*
X75346897Y-50968810D01*
X75263454Y-50839135D01*
X75136134Y-50752141D01*
X74985000Y-50721536D01*
X73722720Y-50721536D01*
X73069200Y-50068016D01*
X73069200Y-49448464D01*
X73485000Y-49448464D01*
X73626190Y-49421897D01*
X73755865Y-49338454D01*
X73842859Y-49211134D01*
X73873464Y-49060000D01*
X73873464Y-47903388D01*
X83657566Y-47903388D01*
X83657566Y-48644378D01*
X83754239Y-48877767D01*
X83932868Y-49056395D01*
X84166257Y-49153068D01*
X84406866Y-49153068D01*
X84565616Y-48994318D01*
X84565616Y-47744638D01*
X84819616Y-47744638D01*
X84819616Y-48994318D01*
X84978366Y-49153068D01*
X85218975Y-49153068D01*
X85452364Y-49056395D01*
X85630993Y-48877767D01*
X85727666Y-48644378D01*
X85727666Y-47903388D01*
X85568916Y-47744638D01*
X84819616Y-47744638D01*
X84565616Y-47744638D01*
X83816316Y-47744638D01*
X83657566Y-47903388D01*
X73873464Y-47903388D01*
X73873464Y-47460000D01*
X73846897Y-47318810D01*
X73829948Y-47292469D01*
X79797616Y-47292469D01*
X79797616Y-47733028D01*
X79956366Y-47891778D01*
X80755616Y-47891778D01*
X80755616Y-46942528D01*
X81009616Y-46942528D01*
X81009616Y-47891778D01*
X81808866Y-47891778D01*
X81967616Y-47733028D01*
X81967616Y-47292469D01*
X81870943Y-47059080D01*
X81692315Y-46880451D01*
X81458926Y-46783778D01*
X81168366Y-46783778D01*
X81009616Y-46942528D01*
X80755616Y-46942528D01*
X80596866Y-46783778D01*
X80306306Y-46783778D01*
X80072917Y-46880451D01*
X79894289Y-47059080D01*
X79797616Y-47292469D01*
X73829948Y-47292469D01*
X73763454Y-47189135D01*
X73636134Y-47102141D01*
X73485000Y-47071536D01*
X73069200Y-47071536D01*
X73069200Y-47053605D01*
X73069201Y-47053600D01*
X73024731Y-46830037D01*
X72898092Y-46640508D01*
X72848482Y-46590898D01*
X83657566Y-46590898D01*
X83657566Y-47331888D01*
X83816316Y-47490638D01*
X84565616Y-47490638D01*
X84565616Y-46240958D01*
X84819616Y-46240958D01*
X84819616Y-47490638D01*
X85568916Y-47490638D01*
X85727666Y-47331888D01*
X85727666Y-46590898D01*
X85630993Y-46357509D01*
X85452364Y-46178881D01*
X85218975Y-46082208D01*
X84978366Y-46082208D01*
X84819616Y-46240958D01*
X84565616Y-46240958D01*
X84406866Y-46082208D01*
X84166257Y-46082208D01*
X83932868Y-46178881D01*
X83754239Y-46357509D01*
X83657566Y-46590898D01*
X72848482Y-46590898D01*
X72072492Y-45814908D01*
X71977864Y-45751680D01*
X71279092Y-45052908D01*
X71173618Y-44982433D01*
X71089564Y-44926270D01*
X70866000Y-44881800D01*
X48006000Y-44881800D01*
X47782436Y-44926270D01*
X47698382Y-44982433D01*
X47592908Y-45052908D01*
X45306908Y-47338908D01*
X45180270Y-47528436D01*
X45135800Y-47752000D01*
X45135800Y-47998536D01*
X42672000Y-47998536D01*
X42530810Y-48025103D01*
X42401135Y-48108546D01*
X42314141Y-48235866D01*
X42283536Y-48387000D01*
X41096000Y-48387000D01*
X41096000Y-40952316D01*
X43658657Y-40952316D01*
X43959611Y-41680680D01*
X44516389Y-42238431D01*
X45244226Y-42540655D01*
X46032316Y-42541343D01*
X46760680Y-42240389D01*
X47318431Y-41683611D01*
X47620655Y-40955774D01*
X47620658Y-40952316D01*
X78658657Y-40952316D01*
X78959611Y-41680680D01*
X79516389Y-42238431D01*
X80244226Y-42540655D01*
X81032316Y-42541343D01*
X81760680Y-42240389D01*
X82318431Y-41683611D01*
X82620655Y-40955774D01*
X82621343Y-40167684D01*
X82320389Y-39439320D01*
X81763611Y-38881569D01*
X81035774Y-38579345D01*
X80247684Y-38578657D01*
X79519320Y-38879611D01*
X78961569Y-39436389D01*
X78659345Y-40164226D01*
X78658657Y-40952316D01*
X47620658Y-40952316D01*
X47621343Y-40167684D01*
X47320389Y-39439320D01*
X46763611Y-38881569D01*
X46035774Y-38579345D01*
X45247684Y-38578657D01*
X44519320Y-38879611D01*
X43961569Y-39436389D01*
X43659345Y-40164226D01*
X43658657Y-40952316D01*
X41096000Y-40952316D01*
X41096000Y-36016000D01*
X87503000Y-36016000D01*
X87503000Y-39078712D01*
M02*
