G04 #@! TF.FileFunction,Soldermask,Top*
%FSLAX46Y46*%
G04 Gerber Fmt 4.6, Leading zero omitted, Abs format (unit mm)*
G04 Created by KiCad (PCBNEW 4.0.2+dfsg1-stable) date Sun 08 May 2016 11:46:39 AM CEST*
%MOMM*%
G01*
G04 APERTURE LIST*
%ADD10C,0.100000*%
%ADD11C,3.600000*%
%ADD12C,2.400000*%
%ADD13R,2.400000X2.000000*%
%ADD14R,2.432000X1.924000*%
%ADD15R,2.000000X2.400000*%
%ADD16R,2.100000X1.050000*%
%ADD17O,2.381200X4.362400*%
%ADD18O,4.362400X2.381200*%
%ADD19R,1.200100X2.200860*%
%ADD20R,1.300000X1.600000*%
%ADD21R,3.448000X2.051000*%
%ADD22R,6.496000X6.496000*%
G04 APERTURE END LIST*
D10*
D11*
X80640000Y-40560000D03*
D12*
X107065000Y-52355000D03*
X107065000Y-40355000D03*
X94865000Y-52355000D03*
X94865000Y-40355000D03*
X92865000Y-46355000D03*
X107065000Y-72675000D03*
X107065000Y-60675000D03*
X94865000Y-72675000D03*
X94865000Y-60675000D03*
X92865000Y-66675000D03*
D13*
X72485000Y-48260000D03*
X68485000Y-48260000D03*
D14*
X59690000Y-49784000D03*
X59690000Y-53086000D03*
D15*
X55880000Y-49435000D03*
X55880000Y-53435000D03*
D13*
X48165000Y-57150000D03*
X52165000Y-57150000D03*
D16*
X66835000Y-51435000D03*
X66835000Y-52705000D03*
X66835000Y-53975000D03*
X66835000Y-55245000D03*
X74135000Y-55245000D03*
X74135000Y-53975000D03*
X74135000Y-52705000D03*
X74135000Y-51435000D03*
D17*
X48260000Y-67945000D03*
X53260000Y-67945000D03*
D18*
X120650000Y-67310000D03*
X120650000Y-62310000D03*
X120650000Y-46990000D03*
X120650000Y-41990000D03*
D17*
X59770000Y-67945000D03*
X64770000Y-67945000D03*
D19*
X83759000Y-58270140D03*
X85659000Y-58270140D03*
X84709000Y-55267860D03*
X83742616Y-50619918D03*
X85642616Y-50619918D03*
X84692616Y-47617638D03*
D20*
X80899000Y-57869000D03*
X80899000Y-55669000D03*
X80882616Y-50218778D03*
X80882616Y-48018778D03*
D21*
X52070000Y-53721000D03*
D22*
X45720000Y-51435000D03*
D21*
X52070000Y-49149000D03*
D17*
X71374000Y-67945000D03*
X76374000Y-67945000D03*
D11*
X45640000Y-40560000D03*
M02*
