G04 #@! TF.FileFunction,Legend,Top*
%FSLAX46Y46*%
G04 Gerber Fmt 4.6, Leading zero omitted, Abs format (unit mm)*
G04 Created by KiCad (PCBNEW 4.0.2+dfsg1-stable) date Sun 08 May 2016 11:46:39 AM CEST*
%MOMM*%
G01*
G04 APERTURE LIST*
%ADD10C,0.100000*%
%ADD11C,0.300000*%
%ADD12C,0.150000*%
G04 APERTURE END LIST*
D10*
D11*
X57142856Y-42858571D02*
X57142856Y-44072857D01*
X57071427Y-44215714D01*
X56999999Y-44287143D01*
X56857142Y-44358571D01*
X56642856Y-44358571D01*
X56499999Y-44287143D01*
X57142856Y-43787143D02*
X56999999Y-43858571D01*
X56714285Y-43858571D01*
X56571427Y-43787143D01*
X56499999Y-43715714D01*
X56428570Y-43572857D01*
X56428570Y-43144286D01*
X56499999Y-43001429D01*
X56571427Y-42930000D01*
X56714285Y-42858571D01*
X56999999Y-42858571D01*
X57142856Y-42930000D01*
X57857142Y-43858571D02*
X57857142Y-42858571D01*
X57857142Y-42358571D02*
X57785713Y-42430000D01*
X57857142Y-42501429D01*
X57928570Y-42430000D01*
X57857142Y-42358571D01*
X57857142Y-42501429D01*
X58357142Y-42858571D02*
X58928571Y-42858571D01*
X58571428Y-42358571D02*
X58571428Y-43644286D01*
X58642856Y-43787143D01*
X58785714Y-43858571D01*
X58928571Y-43858571D01*
X59428571Y-43715714D02*
X59499999Y-43787143D01*
X59428571Y-43858571D01*
X59357142Y-43787143D01*
X59428571Y-43715714D01*
X59428571Y-43858571D01*
X60142857Y-43858571D02*
X60142857Y-42858571D01*
X60142857Y-42358571D02*
X60071428Y-42430000D01*
X60142857Y-42501429D01*
X60214285Y-42430000D01*
X60142857Y-42358571D01*
X60142857Y-42501429D01*
X61071429Y-43858571D02*
X60928571Y-43787143D01*
X60857143Y-43715714D01*
X60785714Y-43572857D01*
X60785714Y-43144286D01*
X60857143Y-43001429D01*
X60928571Y-42930000D01*
X61071429Y-42858571D01*
X61285714Y-42858571D01*
X61428571Y-42930000D01*
X61500000Y-43001429D01*
X61571429Y-43144286D01*
X61571429Y-43572857D01*
X61500000Y-43715714D01*
X61428571Y-43787143D01*
X61285714Y-43858571D01*
X61071429Y-43858571D01*
X63285714Y-42287143D02*
X62000000Y-44215714D01*
X63642858Y-42858571D02*
X64000001Y-43858571D01*
X64357143Y-42858571D01*
X64785715Y-42858571D02*
X65071429Y-43858571D01*
X65357143Y-43144286D01*
X65642858Y-43858571D01*
X65928572Y-42858571D01*
X66500001Y-43858571D02*
X66500001Y-42358571D01*
X67142858Y-43858571D02*
X67142858Y-43072857D01*
X67071429Y-42930000D01*
X66928572Y-42858571D01*
X66714287Y-42858571D01*
X66571429Y-42930000D01*
X66500001Y-43001429D01*
X68071430Y-43858571D02*
X67928572Y-43787143D01*
X67857144Y-43715714D01*
X67785715Y-43572857D01*
X67785715Y-43144286D01*
X67857144Y-43001429D01*
X67928572Y-42930000D01*
X68071430Y-42858571D01*
X68285715Y-42858571D01*
X68428572Y-42930000D01*
X68500001Y-43001429D01*
X68571430Y-43144286D01*
X68571430Y-43572857D01*
X68500001Y-43715714D01*
X68428572Y-43787143D01*
X68285715Y-43858571D01*
X68071430Y-43858571D01*
X69214287Y-43858571D02*
X69214287Y-42858571D01*
X69214287Y-43001429D02*
X69285715Y-42930000D01*
X69428573Y-42858571D01*
X69642858Y-42858571D01*
X69785715Y-42930000D01*
X69857144Y-43072857D01*
X69857144Y-43858571D01*
X69857144Y-43072857D02*
X69928573Y-42930000D01*
X70071430Y-42858571D01*
X70285715Y-42858571D01*
X70428573Y-42930000D01*
X70500001Y-43072857D01*
X70500001Y-43858571D01*
X57214286Y-39818571D02*
X57714286Y-41318571D01*
X58214286Y-39818571D01*
X59285714Y-41247143D02*
X59142857Y-41318571D01*
X58857143Y-41318571D01*
X58714286Y-41247143D01*
X58642857Y-41104286D01*
X58642857Y-40532857D01*
X58714286Y-40390000D01*
X58857143Y-40318571D01*
X59142857Y-40318571D01*
X59285714Y-40390000D01*
X59357143Y-40532857D01*
X59357143Y-40675714D01*
X58642857Y-40818571D01*
X60000000Y-41318571D02*
X60000000Y-40318571D01*
X60000000Y-40604286D02*
X60071428Y-40461429D01*
X60142857Y-40390000D01*
X60285714Y-40318571D01*
X60428571Y-40318571D01*
X60857142Y-41247143D02*
X60999999Y-41318571D01*
X61285714Y-41318571D01*
X61428571Y-41247143D01*
X61499999Y-41104286D01*
X61499999Y-41032857D01*
X61428571Y-40890000D01*
X61285714Y-40818571D01*
X61071428Y-40818571D01*
X60928571Y-40747143D01*
X60857142Y-40604286D01*
X60857142Y-40532857D01*
X60928571Y-40390000D01*
X61071428Y-40318571D01*
X61285714Y-40318571D01*
X61428571Y-40390000D01*
X62142857Y-41318571D02*
X62142857Y-40318571D01*
X62142857Y-39818571D02*
X62071428Y-39890000D01*
X62142857Y-39961429D01*
X62214285Y-39890000D01*
X62142857Y-39818571D01*
X62142857Y-39961429D01*
X63071429Y-41318571D02*
X62928571Y-41247143D01*
X62857143Y-41175714D01*
X62785714Y-41032857D01*
X62785714Y-40604286D01*
X62857143Y-40461429D01*
X62928571Y-40390000D01*
X63071429Y-40318571D01*
X63285714Y-40318571D01*
X63428571Y-40390000D01*
X63500000Y-40461429D01*
X63571429Y-40604286D01*
X63571429Y-41032857D01*
X63500000Y-41175714D01*
X63428571Y-41247143D01*
X63285714Y-41318571D01*
X63071429Y-41318571D01*
X64214286Y-40318571D02*
X64214286Y-41318571D01*
X64214286Y-40461429D02*
X64285714Y-40390000D01*
X64428572Y-40318571D01*
X64642857Y-40318571D01*
X64785714Y-40390000D01*
X64857143Y-40532857D01*
X64857143Y-41318571D01*
X67000000Y-39818571D02*
X67142857Y-39818571D01*
X67285714Y-39890000D01*
X67357143Y-39961429D01*
X67428572Y-40104286D01*
X67500000Y-40390000D01*
X67500000Y-40747143D01*
X67428572Y-41032857D01*
X67357143Y-41175714D01*
X67285714Y-41247143D01*
X67142857Y-41318571D01*
X67000000Y-41318571D01*
X66857143Y-41247143D01*
X66785714Y-41175714D01*
X66714286Y-41032857D01*
X66642857Y-40747143D01*
X66642857Y-40390000D01*
X66714286Y-40104286D01*
X66785714Y-39961429D01*
X66857143Y-39890000D01*
X67000000Y-39818571D01*
X68142857Y-41175714D02*
X68214285Y-41247143D01*
X68142857Y-41318571D01*
X68071428Y-41247143D01*
X68142857Y-41175714D01*
X68142857Y-41318571D01*
X69642857Y-41318571D02*
X68785714Y-41318571D01*
X69214286Y-41318571D02*
X69214286Y-39818571D01*
X69071429Y-40032857D01*
X68928571Y-40175714D01*
X68785714Y-40247143D01*
X53000001Y-38778571D02*
X52500001Y-38064286D01*
X52142858Y-38778571D02*
X52142858Y-37278571D01*
X52714286Y-37278571D01*
X52857144Y-37350000D01*
X52928572Y-37421429D01*
X53000001Y-37564286D01*
X53000001Y-37778571D01*
X52928572Y-37921429D01*
X52857144Y-37992857D01*
X52714286Y-38064286D01*
X52142858Y-38064286D01*
X53642858Y-38778571D02*
X53642858Y-37278571D01*
X54214286Y-37278571D01*
X54357144Y-37350000D01*
X54428572Y-37421429D01*
X54500001Y-37564286D01*
X54500001Y-37778571D01*
X54428572Y-37921429D01*
X54357144Y-37992857D01*
X54214286Y-38064286D01*
X53642858Y-38064286D01*
X55142858Y-38778571D02*
X55142858Y-37778571D01*
X55142858Y-37278571D02*
X55071429Y-37350000D01*
X55142858Y-37421429D01*
X55214286Y-37350000D01*
X55142858Y-37278571D01*
X55142858Y-37421429D01*
X57000001Y-37778571D02*
X57000001Y-39278571D01*
X57000001Y-37850000D02*
X57142858Y-37778571D01*
X57428572Y-37778571D01*
X57571429Y-37850000D01*
X57642858Y-37921429D01*
X57714287Y-38064286D01*
X57714287Y-38492857D01*
X57642858Y-38635714D01*
X57571429Y-38707143D01*
X57428572Y-38778571D01*
X57142858Y-38778571D01*
X57000001Y-38707143D01*
X58571430Y-38778571D02*
X58428572Y-38707143D01*
X58357144Y-38635714D01*
X58285715Y-38492857D01*
X58285715Y-38064286D01*
X58357144Y-37921429D01*
X58428572Y-37850000D01*
X58571430Y-37778571D01*
X58785715Y-37778571D01*
X58928572Y-37850000D01*
X59000001Y-37921429D01*
X59071430Y-38064286D01*
X59071430Y-38492857D01*
X59000001Y-38635714D01*
X58928572Y-38707143D01*
X58785715Y-38778571D01*
X58571430Y-38778571D01*
X59571430Y-37778571D02*
X59857144Y-38778571D01*
X60142858Y-38064286D01*
X60428573Y-38778571D01*
X60714287Y-37778571D01*
X61857144Y-38707143D02*
X61714287Y-38778571D01*
X61428573Y-38778571D01*
X61285716Y-38707143D01*
X61214287Y-38564286D01*
X61214287Y-37992857D01*
X61285716Y-37850000D01*
X61428573Y-37778571D01*
X61714287Y-37778571D01*
X61857144Y-37850000D01*
X61928573Y-37992857D01*
X61928573Y-38135714D01*
X61214287Y-38278571D01*
X62571430Y-38778571D02*
X62571430Y-37778571D01*
X62571430Y-38064286D02*
X62642858Y-37921429D01*
X62714287Y-37850000D01*
X62857144Y-37778571D01*
X63000001Y-37778571D01*
X65285715Y-38707143D02*
X65142858Y-38778571D01*
X64857144Y-38778571D01*
X64714286Y-38707143D01*
X64642858Y-38635714D01*
X64571429Y-38492857D01*
X64571429Y-38064286D01*
X64642858Y-37921429D01*
X64714286Y-37850000D01*
X64857144Y-37778571D01*
X65142858Y-37778571D01*
X65285715Y-37850000D01*
X66142858Y-38778571D02*
X66000000Y-38707143D01*
X65928572Y-38635714D01*
X65857143Y-38492857D01*
X65857143Y-38064286D01*
X65928572Y-37921429D01*
X66000000Y-37850000D01*
X66142858Y-37778571D01*
X66357143Y-37778571D01*
X66500000Y-37850000D01*
X66571429Y-37921429D01*
X66642858Y-38064286D01*
X66642858Y-38492857D01*
X66571429Y-38635714D01*
X66500000Y-38707143D01*
X66357143Y-38778571D01*
X66142858Y-38778571D01*
X67285715Y-37778571D02*
X67285715Y-38778571D01*
X67285715Y-37921429D02*
X67357143Y-37850000D01*
X67500001Y-37778571D01*
X67714286Y-37778571D01*
X67857143Y-37850000D01*
X67928572Y-37992857D01*
X67928572Y-38778571D01*
X68428572Y-37778571D02*
X69000001Y-37778571D01*
X68642858Y-37278571D02*
X68642858Y-38564286D01*
X68714286Y-38707143D01*
X68857144Y-38778571D01*
X69000001Y-38778571D01*
X69500001Y-38778571D02*
X69500001Y-37778571D01*
X69500001Y-38064286D02*
X69571429Y-37921429D01*
X69642858Y-37850000D01*
X69785715Y-37778571D01*
X69928572Y-37778571D01*
X70642858Y-38778571D02*
X70500000Y-38707143D01*
X70428572Y-38635714D01*
X70357143Y-38492857D01*
X70357143Y-38064286D01*
X70428572Y-37921429D01*
X70500000Y-37850000D01*
X70642858Y-37778571D01*
X70857143Y-37778571D01*
X71000000Y-37850000D01*
X71071429Y-37921429D01*
X71142858Y-38064286D01*
X71142858Y-38492857D01*
X71071429Y-38635714D01*
X71000000Y-38707143D01*
X70857143Y-38778571D01*
X70642858Y-38778571D01*
X72000001Y-38778571D02*
X71857143Y-38707143D01*
X71785715Y-38564286D01*
X71785715Y-37278571D01*
X72785715Y-38778571D02*
X72642857Y-38707143D01*
X72571429Y-38564286D01*
X72571429Y-37278571D01*
X73928571Y-38707143D02*
X73785714Y-38778571D01*
X73500000Y-38778571D01*
X73357143Y-38707143D01*
X73285714Y-38564286D01*
X73285714Y-37992857D01*
X73357143Y-37850000D01*
X73500000Y-37778571D01*
X73785714Y-37778571D01*
X73928571Y-37850000D01*
X74000000Y-37992857D01*
X74000000Y-38135714D01*
X73285714Y-38278571D01*
X74642857Y-38778571D02*
X74642857Y-37778571D01*
X74642857Y-38064286D02*
X74714285Y-37921429D01*
X74785714Y-37850000D01*
X74928571Y-37778571D01*
X75071428Y-37778571D01*
D12*
X82926000Y-40560000D02*
G75*
G03X82926000Y-40560000I-2286000J0D01*
G01*
X108590000Y-49355000D02*
X100965000Y-46355000D01*
X100965000Y-46355000D02*
X93340000Y-46355000D01*
X107065000Y-40355000D02*
X107065000Y-41855000D01*
X107065000Y-41855000D02*
X108590000Y-41855000D01*
X108590000Y-41855000D02*
X107065000Y-43355000D01*
X107065000Y-43355000D02*
X105540000Y-41855000D01*
X105540000Y-41855000D02*
X107065000Y-41855000D01*
X107065000Y-52355000D02*
X107065000Y-50855000D01*
X107065000Y-50855000D02*
X108590000Y-50855000D01*
X108590000Y-50855000D02*
X107065000Y-49355000D01*
X107065000Y-49355000D02*
X105540000Y-50855000D01*
X105540000Y-50855000D02*
X107065000Y-50855000D01*
X96390000Y-52380000D02*
G75*
G03X97915000Y-50855000I0J1525000D01*
G01*
X97890000Y-50855000D02*
G75*
G03X96390000Y-49355000I-1500000J0D01*
G01*
X96390000Y-49380000D02*
G75*
G03X97915000Y-47855000I0J1525000D01*
G01*
X97890000Y-47855000D02*
G75*
G03X96390000Y-46355000I-1500000J0D01*
G01*
X96390000Y-46380000D02*
G75*
G03X97915000Y-44855000I0J1525000D01*
G01*
X97890000Y-44855000D02*
G75*
G03X96390000Y-43355000I-1500000J0D01*
G01*
X96390000Y-43380000D02*
G75*
G03X97915000Y-41855000I0J1525000D01*
G01*
X97890000Y-41855000D02*
G75*
G03X96390000Y-40355000I-1500000J0D01*
G01*
X94865000Y-40355000D02*
X96390000Y-40355000D01*
X94865000Y-52355000D02*
X96390000Y-52355000D01*
X110565000Y-54105000D02*
X91365000Y-54105000D01*
X91365000Y-54105000D02*
X91365000Y-38605000D01*
X91365000Y-38605000D02*
X110565000Y-38605000D01*
X110565000Y-38605000D02*
X110565000Y-54105000D01*
X108590000Y-69675000D02*
X100965000Y-66675000D01*
X100965000Y-66675000D02*
X93340000Y-66675000D01*
X107065000Y-60675000D02*
X107065000Y-62175000D01*
X107065000Y-62175000D02*
X108590000Y-62175000D01*
X108590000Y-62175000D02*
X107065000Y-63675000D01*
X107065000Y-63675000D02*
X105540000Y-62175000D01*
X105540000Y-62175000D02*
X107065000Y-62175000D01*
X107065000Y-72675000D02*
X107065000Y-71175000D01*
X107065000Y-71175000D02*
X108590000Y-71175000D01*
X108590000Y-71175000D02*
X107065000Y-69675000D01*
X107065000Y-69675000D02*
X105540000Y-71175000D01*
X105540000Y-71175000D02*
X107065000Y-71175000D01*
X96390000Y-72700000D02*
G75*
G03X97915000Y-71175000I0J1525000D01*
G01*
X97890000Y-71175000D02*
G75*
G03X96390000Y-69675000I-1500000J0D01*
G01*
X96390000Y-69700000D02*
G75*
G03X97915000Y-68175000I0J1525000D01*
G01*
X97890000Y-68175000D02*
G75*
G03X96390000Y-66675000I-1500000J0D01*
G01*
X96390000Y-66700000D02*
G75*
G03X97915000Y-65175000I0J1525000D01*
G01*
X97890000Y-65175000D02*
G75*
G03X96390000Y-63675000I-1500000J0D01*
G01*
X96390000Y-63700000D02*
G75*
G03X97915000Y-62175000I0J1525000D01*
G01*
X97890000Y-62175000D02*
G75*
G03X96390000Y-60675000I-1500000J0D01*
G01*
X94865000Y-60675000D02*
X96390000Y-60675000D01*
X94865000Y-72675000D02*
X96390000Y-72675000D01*
X110565000Y-74425000D02*
X91365000Y-74425000D01*
X91365000Y-74425000D02*
X91365000Y-58925000D01*
X91365000Y-58925000D02*
X110565000Y-58925000D01*
X110565000Y-58925000D02*
X110565000Y-74425000D01*
X69485000Y-49285000D02*
X71485000Y-49285000D01*
X71485000Y-47235000D02*
X69485000Y-47235000D01*
X60833000Y-48895000D02*
X60833000Y-48641000D01*
X60833000Y-48641000D02*
X58547000Y-48641000D01*
X58547000Y-48641000D02*
X58547000Y-48895000D01*
X60833000Y-48895000D02*
X58547000Y-48895000D01*
X58547000Y-48895000D02*
X58547000Y-50546000D01*
X60833000Y-52324000D02*
X60833000Y-53975000D01*
X60833000Y-53975000D02*
X58547000Y-53975000D01*
X58547000Y-53975000D02*
X58547000Y-52324000D01*
X60833000Y-50546000D02*
X60833000Y-48895000D01*
X56905000Y-52435000D02*
X56905000Y-50435000D01*
X54855000Y-50435000D02*
X54855000Y-52435000D01*
X51165000Y-56125000D02*
X49165000Y-56125000D01*
X49165000Y-58175000D02*
X51165000Y-58175000D01*
X67735000Y-50585000D02*
X67735000Y-50885000D01*
X73235000Y-50585000D02*
X73235000Y-50885000D01*
X73235000Y-56095000D02*
X73235000Y-55795000D01*
X67735000Y-56095000D02*
X67735000Y-55795000D01*
X67735000Y-50585000D02*
X73235000Y-50585000D01*
X67735000Y-56095000D02*
X73235000Y-56095000D01*
X67735000Y-50885000D02*
X65985000Y-50885000D01*
X47000400Y-70485000D02*
X49540400Y-70485000D01*
X49540400Y-70485000D02*
X49540400Y-67691000D01*
X47000400Y-67691000D02*
X49540400Y-67691000D01*
X47000400Y-70485000D02*
X47000400Y-67691000D01*
X52004200Y-70485000D02*
X54544200Y-70485000D01*
X54544200Y-70485000D02*
X54544200Y-67691000D01*
X52004200Y-67691000D02*
X54544200Y-67691000D01*
X52004200Y-70485000D02*
X52004200Y-67691000D01*
X55865000Y-61722000D02*
X55865000Y-64770000D01*
X55865000Y-61722000D02*
X45680000Y-61722000D01*
X55865000Y-61722000D02*
X56373000Y-61722000D01*
X56373000Y-61722000D02*
X56373000Y-66548000D01*
X56373000Y-66548000D02*
X55865000Y-66294000D01*
X56373000Y-73406000D02*
X55865000Y-73152000D01*
X55865000Y-73152000D02*
X55865000Y-74168000D01*
X56373000Y-71755000D02*
X55865000Y-72009000D01*
X55865000Y-72009000D02*
X55865000Y-73152000D01*
X56373000Y-71755000D02*
X56373000Y-73406000D01*
X51242200Y-74168000D02*
X51242200Y-72263000D01*
X55306200Y-67691000D02*
X55306200Y-72263000D01*
X51242200Y-74168000D02*
X55306200Y-74168000D01*
X55306200Y-74168000D02*
X55865000Y-74168000D01*
X50302400Y-74168000D02*
X50302400Y-72263000D01*
X50302400Y-74168000D02*
X51242200Y-74168000D01*
X46238400Y-67691000D02*
X46238400Y-72263000D01*
X45680000Y-74168000D02*
X46238400Y-74168000D01*
X46238400Y-74168000D02*
X50302400Y-74168000D01*
X51242200Y-72263000D02*
X55306200Y-72263000D01*
X51242200Y-72263000D02*
X51242200Y-67691000D01*
X55306200Y-72263000D02*
X55306200Y-74168000D01*
X50302400Y-72263000D02*
X46238400Y-72263000D01*
X50302400Y-72263000D02*
X50302400Y-67691000D01*
X46238400Y-72263000D02*
X46238400Y-74168000D01*
X54925200Y-71628000D02*
X54925200Y-68453000D01*
X54925200Y-71628000D02*
X51623200Y-71628000D01*
X51623200Y-71628000D02*
X51623200Y-68453000D01*
X49921400Y-71628000D02*
X49921400Y-68453000D01*
X49921400Y-71628000D02*
X46619400Y-71628000D01*
X46619400Y-71628000D02*
X46619400Y-68453000D01*
X46619400Y-68453000D02*
X47000400Y-68453000D01*
X49921400Y-68453000D02*
X49540400Y-68453000D01*
X51623200Y-68453000D02*
X52004200Y-68453000D01*
X54925200Y-68453000D02*
X54544200Y-68453000D01*
X45680000Y-74168000D02*
X45680000Y-67310000D01*
X45680000Y-67310000D02*
X45680000Y-64770000D01*
X55865000Y-66294000D02*
X55865000Y-67310000D01*
X55865000Y-67310000D02*
X55865000Y-72009000D01*
X45680000Y-64770000D02*
X55865000Y-64770000D01*
X45680000Y-64770000D02*
X45680000Y-61722000D01*
X55865000Y-64770000D02*
X55865000Y-66294000D01*
X51242200Y-64516000D02*
X51242200Y-61976000D01*
X51242200Y-61976000D02*
X55306200Y-61976000D01*
X55306200Y-61976000D02*
X55306200Y-64516000D01*
X55306200Y-64516000D02*
X51242200Y-64516000D01*
X50302400Y-64516000D02*
X50302400Y-61976000D01*
X50302400Y-64516000D02*
X46238400Y-64516000D01*
X46238400Y-64516000D02*
X46238400Y-61976000D01*
X50302400Y-61976000D02*
X46238400Y-61976000D01*
X51648600Y-63500000D02*
X54696600Y-62865000D01*
X51775600Y-63627000D02*
X54823600Y-62992000D01*
X46644800Y-63500000D02*
X49695340Y-62865000D01*
X46771800Y-63627000D02*
X49819800Y-62992000D01*
X46238400Y-67691000D02*
X46619400Y-67691000D01*
X50302400Y-67691000D02*
X49921400Y-67691000D01*
X49921400Y-67691000D02*
X46619400Y-67691000D01*
X45680000Y-67310000D02*
X46619400Y-67310000D01*
X46619400Y-67310000D02*
X49921400Y-67310000D01*
X49921400Y-67310000D02*
X51623200Y-67310000D01*
X55865000Y-67310000D02*
X54925200Y-67310000D01*
X54925200Y-67310000D02*
X51623200Y-67310000D01*
X55306200Y-67691000D02*
X54925200Y-67691000D01*
X51242200Y-67691000D02*
X51623200Y-67691000D01*
X51623200Y-67691000D02*
X54925200Y-67691000D01*
X54742972Y-63859570D02*
G75*
G03X54795660Y-62892940I-452772J509430D01*
G01*
X51800272Y-63779896D02*
G75*
G03X54788040Y-63827660I1524728J1905496D01*
G01*
X54799411Y-62888156D02*
G75*
G03X51648600Y-62941200I-1553151J-1348444D01*
G01*
X51699903Y-62891519D02*
G75*
G03X51841640Y-63817500I431297J-407821D01*
G01*
X49739149Y-63862110D02*
G75*
G03X49794400Y-62892940I-452749J511970D01*
G01*
X46799012Y-63779896D02*
G75*
G03X49786780Y-63827660I1524728J1905496D01*
G01*
X49801573Y-62883153D02*
G75*
G03X46644800Y-62941200I-1554033J-1353447D01*
G01*
X46695480Y-62893981D02*
G75*
G03X46840380Y-63817500I431920J-405359D01*
G01*
X123190000Y-68569600D02*
X123190000Y-66029600D01*
X123190000Y-66029600D02*
X120396000Y-66029600D01*
X120396000Y-68569600D02*
X120396000Y-66029600D01*
X123190000Y-68569600D02*
X120396000Y-68569600D01*
X123190000Y-63565800D02*
X123190000Y-61025800D01*
X123190000Y-61025800D02*
X120396000Y-61025800D01*
X120396000Y-63565800D02*
X120396000Y-61025800D01*
X123190000Y-63565800D02*
X120396000Y-63565800D01*
X114427000Y-59705000D02*
X117475000Y-59705000D01*
X114427000Y-59705000D02*
X114427000Y-69890000D01*
X114427000Y-59705000D02*
X114427000Y-59197000D01*
X114427000Y-59197000D02*
X119253000Y-59197000D01*
X119253000Y-59197000D02*
X118999000Y-59705000D01*
X126111000Y-59197000D02*
X125857000Y-59705000D01*
X125857000Y-59705000D02*
X126873000Y-59705000D01*
X124460000Y-59197000D02*
X124714000Y-59705000D01*
X124714000Y-59705000D02*
X125857000Y-59705000D01*
X124460000Y-59197000D02*
X126111000Y-59197000D01*
X126873000Y-64327800D02*
X124968000Y-64327800D01*
X120396000Y-60263800D02*
X124968000Y-60263800D01*
X126873000Y-64327800D02*
X126873000Y-60263800D01*
X126873000Y-60263800D02*
X126873000Y-59705000D01*
X126873000Y-65267600D02*
X124968000Y-65267600D01*
X126873000Y-65267600D02*
X126873000Y-64327800D01*
X120396000Y-69331600D02*
X124968000Y-69331600D01*
X126873000Y-69890000D02*
X126873000Y-69331600D01*
X126873000Y-69331600D02*
X126873000Y-65267600D01*
X124968000Y-64327800D02*
X124968000Y-60263800D01*
X124968000Y-64327800D02*
X120396000Y-64327800D01*
X124968000Y-60263800D02*
X126873000Y-60263800D01*
X124968000Y-65267600D02*
X124968000Y-69331600D01*
X124968000Y-65267600D02*
X120396000Y-65267600D01*
X124968000Y-69331600D02*
X126873000Y-69331600D01*
X124333000Y-60644800D02*
X121158000Y-60644800D01*
X124333000Y-60644800D02*
X124333000Y-63946800D01*
X124333000Y-63946800D02*
X121158000Y-63946800D01*
X124333000Y-65648600D02*
X121158000Y-65648600D01*
X124333000Y-65648600D02*
X124333000Y-68950600D01*
X124333000Y-68950600D02*
X121158000Y-68950600D01*
X121158000Y-68950600D02*
X121158000Y-68569600D01*
X121158000Y-65648600D02*
X121158000Y-66029600D01*
X121158000Y-63946800D02*
X121158000Y-63565800D01*
X121158000Y-60644800D02*
X121158000Y-61025800D01*
X126873000Y-69890000D02*
X120015000Y-69890000D01*
X120015000Y-69890000D02*
X117475000Y-69890000D01*
X118999000Y-59705000D02*
X120015000Y-59705000D01*
X120015000Y-59705000D02*
X124714000Y-59705000D01*
X117475000Y-69890000D02*
X117475000Y-59705000D01*
X117475000Y-69890000D02*
X114427000Y-69890000D01*
X117475000Y-59705000D02*
X118999000Y-59705000D01*
X117221000Y-64327800D02*
X114681000Y-64327800D01*
X114681000Y-64327800D02*
X114681000Y-60263800D01*
X114681000Y-60263800D02*
X117221000Y-60263800D01*
X117221000Y-60263800D02*
X117221000Y-64327800D01*
X117221000Y-65267600D02*
X114681000Y-65267600D01*
X117221000Y-65267600D02*
X117221000Y-69331600D01*
X117221000Y-69331600D02*
X114681000Y-69331600D01*
X114681000Y-65267600D02*
X114681000Y-69331600D01*
X116205000Y-63921400D02*
X115570000Y-60873400D01*
X116332000Y-63794400D02*
X115697000Y-60746400D01*
X116205000Y-68925200D02*
X115570000Y-65874660D01*
X116332000Y-68798200D02*
X115697000Y-65750200D01*
X120396000Y-69331600D02*
X120396000Y-68950600D01*
X120396000Y-65267600D02*
X120396000Y-65648600D01*
X120396000Y-65648600D02*
X120396000Y-68950600D01*
X120015000Y-69890000D02*
X120015000Y-68950600D01*
X120015000Y-68950600D02*
X120015000Y-65648600D01*
X120015000Y-65648600D02*
X120015000Y-63946800D01*
X120015000Y-59705000D02*
X120015000Y-60644800D01*
X120015000Y-60644800D02*
X120015000Y-63946800D01*
X120396000Y-60263800D02*
X120396000Y-60644800D01*
X120396000Y-64327800D02*
X120396000Y-63946800D01*
X120396000Y-63946800D02*
X120396000Y-60644800D01*
X116564570Y-60827028D02*
G75*
G03X115597940Y-60774340I-509430J-452772D01*
G01*
X116484896Y-63769728D02*
G75*
G03X116532660Y-60781960I-1905496J1524728D01*
G01*
X115593156Y-60770589D02*
G75*
G03X115646200Y-63921400I1348444J-1553151D01*
G01*
X115596519Y-63870097D02*
G75*
G03X116522500Y-63728360I407821J431297D01*
G01*
X116567110Y-65830851D02*
G75*
G03X115597940Y-65775600I-511970J-452749D01*
G01*
X116484896Y-68770988D02*
G75*
G03X116532660Y-65783220I-1905496J1524728D01*
G01*
X115588153Y-65768427D02*
G75*
G03X115646200Y-68925200I1353447J-1554033D01*
G01*
X115598981Y-68874520D02*
G75*
G03X116522500Y-68729620I405359J431920D01*
G01*
X123190000Y-48249600D02*
X123190000Y-45709600D01*
X123190000Y-45709600D02*
X120396000Y-45709600D01*
X120396000Y-48249600D02*
X120396000Y-45709600D01*
X123190000Y-48249600D02*
X120396000Y-48249600D01*
X123190000Y-43245800D02*
X123190000Y-40705800D01*
X123190000Y-40705800D02*
X120396000Y-40705800D01*
X120396000Y-43245800D02*
X120396000Y-40705800D01*
X123190000Y-43245800D02*
X120396000Y-43245800D01*
X114427000Y-39385000D02*
X117475000Y-39385000D01*
X114427000Y-39385000D02*
X114427000Y-49570000D01*
X114427000Y-39385000D02*
X114427000Y-38877000D01*
X114427000Y-38877000D02*
X119253000Y-38877000D01*
X119253000Y-38877000D02*
X118999000Y-39385000D01*
X126111000Y-38877000D02*
X125857000Y-39385000D01*
X125857000Y-39385000D02*
X126873000Y-39385000D01*
X124460000Y-38877000D02*
X124714000Y-39385000D01*
X124714000Y-39385000D02*
X125857000Y-39385000D01*
X124460000Y-38877000D02*
X126111000Y-38877000D01*
X126873000Y-44007800D02*
X124968000Y-44007800D01*
X120396000Y-39943800D02*
X124968000Y-39943800D01*
X126873000Y-44007800D02*
X126873000Y-39943800D01*
X126873000Y-39943800D02*
X126873000Y-39385000D01*
X126873000Y-44947600D02*
X124968000Y-44947600D01*
X126873000Y-44947600D02*
X126873000Y-44007800D01*
X120396000Y-49011600D02*
X124968000Y-49011600D01*
X126873000Y-49570000D02*
X126873000Y-49011600D01*
X126873000Y-49011600D02*
X126873000Y-44947600D01*
X124968000Y-44007800D02*
X124968000Y-39943800D01*
X124968000Y-44007800D02*
X120396000Y-44007800D01*
X124968000Y-39943800D02*
X126873000Y-39943800D01*
X124968000Y-44947600D02*
X124968000Y-49011600D01*
X124968000Y-44947600D02*
X120396000Y-44947600D01*
X124968000Y-49011600D02*
X126873000Y-49011600D01*
X124333000Y-40324800D02*
X121158000Y-40324800D01*
X124333000Y-40324800D02*
X124333000Y-43626800D01*
X124333000Y-43626800D02*
X121158000Y-43626800D01*
X124333000Y-45328600D02*
X121158000Y-45328600D01*
X124333000Y-45328600D02*
X124333000Y-48630600D01*
X124333000Y-48630600D02*
X121158000Y-48630600D01*
X121158000Y-48630600D02*
X121158000Y-48249600D01*
X121158000Y-45328600D02*
X121158000Y-45709600D01*
X121158000Y-43626800D02*
X121158000Y-43245800D01*
X121158000Y-40324800D02*
X121158000Y-40705800D01*
X126873000Y-49570000D02*
X120015000Y-49570000D01*
X120015000Y-49570000D02*
X117475000Y-49570000D01*
X118999000Y-39385000D02*
X120015000Y-39385000D01*
X120015000Y-39385000D02*
X124714000Y-39385000D01*
X117475000Y-49570000D02*
X117475000Y-39385000D01*
X117475000Y-49570000D02*
X114427000Y-49570000D01*
X117475000Y-39385000D02*
X118999000Y-39385000D01*
X117221000Y-44007800D02*
X114681000Y-44007800D01*
X114681000Y-44007800D02*
X114681000Y-39943800D01*
X114681000Y-39943800D02*
X117221000Y-39943800D01*
X117221000Y-39943800D02*
X117221000Y-44007800D01*
X117221000Y-44947600D02*
X114681000Y-44947600D01*
X117221000Y-44947600D02*
X117221000Y-49011600D01*
X117221000Y-49011600D02*
X114681000Y-49011600D01*
X114681000Y-44947600D02*
X114681000Y-49011600D01*
X116205000Y-43601400D02*
X115570000Y-40553400D01*
X116332000Y-43474400D02*
X115697000Y-40426400D01*
X116205000Y-48605200D02*
X115570000Y-45554660D01*
X116332000Y-48478200D02*
X115697000Y-45430200D01*
X120396000Y-49011600D02*
X120396000Y-48630600D01*
X120396000Y-44947600D02*
X120396000Y-45328600D01*
X120396000Y-45328600D02*
X120396000Y-48630600D01*
X120015000Y-49570000D02*
X120015000Y-48630600D01*
X120015000Y-48630600D02*
X120015000Y-45328600D01*
X120015000Y-45328600D02*
X120015000Y-43626800D01*
X120015000Y-39385000D02*
X120015000Y-40324800D01*
X120015000Y-40324800D02*
X120015000Y-43626800D01*
X120396000Y-39943800D02*
X120396000Y-40324800D01*
X120396000Y-44007800D02*
X120396000Y-43626800D01*
X120396000Y-43626800D02*
X120396000Y-40324800D01*
X116564570Y-40507028D02*
G75*
G03X115597940Y-40454340I-509430J-452772D01*
G01*
X116484896Y-43449728D02*
G75*
G03X116532660Y-40461960I-1905496J1524728D01*
G01*
X115593156Y-40450589D02*
G75*
G03X115646200Y-43601400I1348444J-1553151D01*
G01*
X115596519Y-43550097D02*
G75*
G03X116522500Y-43408360I407821J431297D01*
G01*
X116567110Y-45510851D02*
G75*
G03X115597940Y-45455600I-511970J-452749D01*
G01*
X116484896Y-48450988D02*
G75*
G03X116532660Y-45463220I-1905496J1524728D01*
G01*
X115588153Y-45448427D02*
G75*
G03X115646200Y-48605200I1353447J-1554033D01*
G01*
X115598981Y-48554520D02*
G75*
G03X116522500Y-48409620I405359J431920D01*
G01*
X58510400Y-70485000D02*
X61050400Y-70485000D01*
X61050400Y-70485000D02*
X61050400Y-67691000D01*
X58510400Y-67691000D02*
X61050400Y-67691000D01*
X58510400Y-70485000D02*
X58510400Y-67691000D01*
X63514200Y-70485000D02*
X66054200Y-70485000D01*
X66054200Y-70485000D02*
X66054200Y-67691000D01*
X63514200Y-67691000D02*
X66054200Y-67691000D01*
X63514200Y-70485000D02*
X63514200Y-67691000D01*
X67375000Y-61722000D02*
X67375000Y-64770000D01*
X67375000Y-61722000D02*
X57190000Y-61722000D01*
X67375000Y-61722000D02*
X67883000Y-61722000D01*
X67883000Y-61722000D02*
X67883000Y-66548000D01*
X67883000Y-66548000D02*
X67375000Y-66294000D01*
X67883000Y-73406000D02*
X67375000Y-73152000D01*
X67375000Y-73152000D02*
X67375000Y-74168000D01*
X67883000Y-71755000D02*
X67375000Y-72009000D01*
X67375000Y-72009000D02*
X67375000Y-73152000D01*
X67883000Y-71755000D02*
X67883000Y-73406000D01*
X62752200Y-74168000D02*
X62752200Y-72263000D01*
X66816200Y-67691000D02*
X66816200Y-72263000D01*
X62752200Y-74168000D02*
X66816200Y-74168000D01*
X66816200Y-74168000D02*
X67375000Y-74168000D01*
X61812400Y-74168000D02*
X61812400Y-72263000D01*
X61812400Y-74168000D02*
X62752200Y-74168000D01*
X57748400Y-67691000D02*
X57748400Y-72263000D01*
X57190000Y-74168000D02*
X57748400Y-74168000D01*
X57748400Y-74168000D02*
X61812400Y-74168000D01*
X62752200Y-72263000D02*
X66816200Y-72263000D01*
X62752200Y-72263000D02*
X62752200Y-67691000D01*
X66816200Y-72263000D02*
X66816200Y-74168000D01*
X61812400Y-72263000D02*
X57748400Y-72263000D01*
X61812400Y-72263000D02*
X61812400Y-67691000D01*
X57748400Y-72263000D02*
X57748400Y-74168000D01*
X66435200Y-71628000D02*
X66435200Y-68453000D01*
X66435200Y-71628000D02*
X63133200Y-71628000D01*
X63133200Y-71628000D02*
X63133200Y-68453000D01*
X61431400Y-71628000D02*
X61431400Y-68453000D01*
X61431400Y-71628000D02*
X58129400Y-71628000D01*
X58129400Y-71628000D02*
X58129400Y-68453000D01*
X58129400Y-68453000D02*
X58510400Y-68453000D01*
X61431400Y-68453000D02*
X61050400Y-68453000D01*
X63133200Y-68453000D02*
X63514200Y-68453000D01*
X66435200Y-68453000D02*
X66054200Y-68453000D01*
X57190000Y-74168000D02*
X57190000Y-67310000D01*
X57190000Y-67310000D02*
X57190000Y-64770000D01*
X67375000Y-66294000D02*
X67375000Y-67310000D01*
X67375000Y-67310000D02*
X67375000Y-72009000D01*
X57190000Y-64770000D02*
X67375000Y-64770000D01*
X57190000Y-64770000D02*
X57190000Y-61722000D01*
X67375000Y-64770000D02*
X67375000Y-66294000D01*
X62752200Y-64516000D02*
X62752200Y-61976000D01*
X62752200Y-61976000D02*
X66816200Y-61976000D01*
X66816200Y-61976000D02*
X66816200Y-64516000D01*
X66816200Y-64516000D02*
X62752200Y-64516000D01*
X61812400Y-64516000D02*
X61812400Y-61976000D01*
X61812400Y-64516000D02*
X57748400Y-64516000D01*
X57748400Y-64516000D02*
X57748400Y-61976000D01*
X61812400Y-61976000D02*
X57748400Y-61976000D01*
X63158600Y-63500000D02*
X66206600Y-62865000D01*
X63285600Y-63627000D02*
X66333600Y-62992000D01*
X58154800Y-63500000D02*
X61205340Y-62865000D01*
X58281800Y-63627000D02*
X61329800Y-62992000D01*
X57748400Y-67691000D02*
X58129400Y-67691000D01*
X61812400Y-67691000D02*
X61431400Y-67691000D01*
X61431400Y-67691000D02*
X58129400Y-67691000D01*
X57190000Y-67310000D02*
X58129400Y-67310000D01*
X58129400Y-67310000D02*
X61431400Y-67310000D01*
X61431400Y-67310000D02*
X63133200Y-67310000D01*
X67375000Y-67310000D02*
X66435200Y-67310000D01*
X66435200Y-67310000D02*
X63133200Y-67310000D01*
X66816200Y-67691000D02*
X66435200Y-67691000D01*
X62752200Y-67691000D02*
X63133200Y-67691000D01*
X63133200Y-67691000D02*
X66435200Y-67691000D01*
X66252972Y-63859570D02*
G75*
G03X66305660Y-62892940I-452772J509430D01*
G01*
X63310272Y-63779896D02*
G75*
G03X66298040Y-63827660I1524728J1905496D01*
G01*
X66309411Y-62888156D02*
G75*
G03X63158600Y-62941200I-1553151J-1348444D01*
G01*
X63209903Y-62891519D02*
G75*
G03X63351640Y-63817500I431297J-407821D01*
G01*
X61249149Y-63862110D02*
G75*
G03X61304400Y-62892940I-452749J511970D01*
G01*
X58309012Y-63779896D02*
G75*
G03X61296780Y-63827660I1524728J1905496D01*
G01*
X61311573Y-62883153D02*
G75*
G03X58154800Y-62941200I-1554033J-1353447D01*
G01*
X58205480Y-62893981D02*
G75*
G03X58350380Y-63817500I431920J-405359D01*
G01*
X83209180Y-56819800D02*
X83209180Y-56118760D01*
X83209180Y-56118760D02*
X83458100Y-56118760D01*
X86008160Y-56118760D02*
X86208820Y-56118760D01*
X86208820Y-56118760D02*
X86208820Y-56819800D01*
X83192796Y-49169578D02*
X83192796Y-48468538D01*
X83192796Y-48468538D02*
X83441716Y-48468538D01*
X85991776Y-48468538D02*
X86192436Y-48468538D01*
X86192436Y-48468538D02*
X86192436Y-49169578D01*
X81574000Y-56269000D02*
X81574000Y-57269000D01*
X80224000Y-57269000D02*
X80224000Y-56269000D01*
X81557616Y-48618778D02*
X81557616Y-49618778D01*
X80207616Y-49618778D02*
X80207616Y-48618778D01*
X50546000Y-50038000D02*
X53721000Y-50038000D01*
X53721000Y-50038000D02*
X53721000Y-48260000D01*
X53721000Y-48260000D02*
X50546000Y-48260000D01*
X50546000Y-54610000D02*
X53721000Y-54610000D01*
X53721000Y-54610000D02*
X53721000Y-52832000D01*
X53721000Y-52832000D02*
X50546000Y-52832000D01*
X44450000Y-48006000D02*
X50546000Y-48006000D01*
X50546000Y-48006000D02*
X50546000Y-54864000D01*
X50546000Y-54864000D02*
X42672000Y-54864000D01*
X42545000Y-54864000D02*
X42545000Y-48006000D01*
X42672000Y-48006000D02*
X44450000Y-48006000D01*
X70114400Y-70485000D02*
X72654400Y-70485000D01*
X72654400Y-70485000D02*
X72654400Y-67691000D01*
X70114400Y-67691000D02*
X72654400Y-67691000D01*
X70114400Y-70485000D02*
X70114400Y-67691000D01*
X75118200Y-70485000D02*
X77658200Y-70485000D01*
X77658200Y-70485000D02*
X77658200Y-67691000D01*
X75118200Y-67691000D02*
X77658200Y-67691000D01*
X75118200Y-70485000D02*
X75118200Y-67691000D01*
X78979000Y-61722000D02*
X78979000Y-64770000D01*
X78979000Y-61722000D02*
X68794000Y-61722000D01*
X78979000Y-61722000D02*
X79487000Y-61722000D01*
X79487000Y-61722000D02*
X79487000Y-66548000D01*
X79487000Y-66548000D02*
X78979000Y-66294000D01*
X79487000Y-73406000D02*
X78979000Y-73152000D01*
X78979000Y-73152000D02*
X78979000Y-74168000D01*
X79487000Y-71755000D02*
X78979000Y-72009000D01*
X78979000Y-72009000D02*
X78979000Y-73152000D01*
X79487000Y-71755000D02*
X79487000Y-73406000D01*
X74356200Y-74168000D02*
X74356200Y-72263000D01*
X78420200Y-67691000D02*
X78420200Y-72263000D01*
X74356200Y-74168000D02*
X78420200Y-74168000D01*
X78420200Y-74168000D02*
X78979000Y-74168000D01*
X73416400Y-74168000D02*
X73416400Y-72263000D01*
X73416400Y-74168000D02*
X74356200Y-74168000D01*
X69352400Y-67691000D02*
X69352400Y-72263000D01*
X68794000Y-74168000D02*
X69352400Y-74168000D01*
X69352400Y-74168000D02*
X73416400Y-74168000D01*
X74356200Y-72263000D02*
X78420200Y-72263000D01*
X74356200Y-72263000D02*
X74356200Y-67691000D01*
X78420200Y-72263000D02*
X78420200Y-74168000D01*
X73416400Y-72263000D02*
X69352400Y-72263000D01*
X73416400Y-72263000D02*
X73416400Y-67691000D01*
X69352400Y-72263000D02*
X69352400Y-74168000D01*
X78039200Y-71628000D02*
X78039200Y-68453000D01*
X78039200Y-71628000D02*
X74737200Y-71628000D01*
X74737200Y-71628000D02*
X74737200Y-68453000D01*
X73035400Y-71628000D02*
X73035400Y-68453000D01*
X73035400Y-71628000D02*
X69733400Y-71628000D01*
X69733400Y-71628000D02*
X69733400Y-68453000D01*
X69733400Y-68453000D02*
X70114400Y-68453000D01*
X73035400Y-68453000D02*
X72654400Y-68453000D01*
X74737200Y-68453000D02*
X75118200Y-68453000D01*
X78039200Y-68453000D02*
X77658200Y-68453000D01*
X68794000Y-74168000D02*
X68794000Y-67310000D01*
X68794000Y-67310000D02*
X68794000Y-64770000D01*
X78979000Y-66294000D02*
X78979000Y-67310000D01*
X78979000Y-67310000D02*
X78979000Y-72009000D01*
X68794000Y-64770000D02*
X78979000Y-64770000D01*
X68794000Y-64770000D02*
X68794000Y-61722000D01*
X78979000Y-64770000D02*
X78979000Y-66294000D01*
X74356200Y-64516000D02*
X74356200Y-61976000D01*
X74356200Y-61976000D02*
X78420200Y-61976000D01*
X78420200Y-61976000D02*
X78420200Y-64516000D01*
X78420200Y-64516000D02*
X74356200Y-64516000D01*
X73416400Y-64516000D02*
X73416400Y-61976000D01*
X73416400Y-64516000D02*
X69352400Y-64516000D01*
X69352400Y-64516000D02*
X69352400Y-61976000D01*
X73416400Y-61976000D02*
X69352400Y-61976000D01*
X74762600Y-63500000D02*
X77810600Y-62865000D01*
X74889600Y-63627000D02*
X77937600Y-62992000D01*
X69758800Y-63500000D02*
X72809340Y-62865000D01*
X69885800Y-63627000D02*
X72933800Y-62992000D01*
X69352400Y-67691000D02*
X69733400Y-67691000D01*
X73416400Y-67691000D02*
X73035400Y-67691000D01*
X73035400Y-67691000D02*
X69733400Y-67691000D01*
X68794000Y-67310000D02*
X69733400Y-67310000D01*
X69733400Y-67310000D02*
X73035400Y-67310000D01*
X73035400Y-67310000D02*
X74737200Y-67310000D01*
X78979000Y-67310000D02*
X78039200Y-67310000D01*
X78039200Y-67310000D02*
X74737200Y-67310000D01*
X78420200Y-67691000D02*
X78039200Y-67691000D01*
X74356200Y-67691000D02*
X74737200Y-67691000D01*
X74737200Y-67691000D02*
X78039200Y-67691000D01*
X77856972Y-63859570D02*
G75*
G03X77909660Y-62892940I-452772J509430D01*
G01*
X74914272Y-63779896D02*
G75*
G03X77902040Y-63827660I1524728J1905496D01*
G01*
X77913411Y-62888156D02*
G75*
G03X74762600Y-62941200I-1553151J-1348444D01*
G01*
X74813903Y-62891519D02*
G75*
G03X74955640Y-63817500I431297J-407821D01*
G01*
X72853149Y-63862110D02*
G75*
G03X72908400Y-62892940I-452749J511970D01*
G01*
X69913012Y-63779896D02*
G75*
G03X72900780Y-63827660I1524728J1905496D01*
G01*
X72915573Y-62883153D02*
G75*
G03X69758800Y-62941200I-1554033J-1353447D01*
G01*
X69809480Y-62893981D02*
G75*
G03X69954380Y-63817500I431920J-405359D01*
G01*
X47926000Y-40560000D02*
G75*
G03X47926000Y-40560000I-2286000J0D01*
G01*
X100226905Y-55807381D02*
X100226905Y-54807381D01*
X100798334Y-55807381D02*
X100369762Y-55235952D01*
X100798334Y-54807381D02*
X100226905Y-55378810D01*
X101179286Y-54902619D02*
X101226905Y-54855000D01*
X101322143Y-54807381D01*
X101560239Y-54807381D01*
X101655477Y-54855000D01*
X101703096Y-54902619D01*
X101750715Y-54997857D01*
X101750715Y-55093095D01*
X101703096Y-55235952D01*
X101131667Y-55807381D01*
X101750715Y-55807381D01*
X100226905Y-76127381D02*
X100226905Y-75127381D01*
X100798334Y-76127381D02*
X100369762Y-75555952D01*
X100798334Y-75127381D02*
X100226905Y-75698810D01*
X101750715Y-76127381D02*
X101179286Y-76127381D01*
X101465000Y-76127381D02*
X101465000Y-75127381D01*
X101369762Y-75270238D01*
X101274524Y-75365476D01*
X101179286Y-75413095D01*
X74763334Y-48617143D02*
X74715715Y-48664762D01*
X74572858Y-48712381D01*
X74477620Y-48712381D01*
X74334762Y-48664762D01*
X74239524Y-48569524D01*
X74191905Y-48474286D01*
X74144286Y-48283810D01*
X74144286Y-48140952D01*
X74191905Y-47950476D01*
X74239524Y-47855238D01*
X74334762Y-47760000D01*
X74477620Y-47712381D01*
X74572858Y-47712381D01*
X74715715Y-47760000D01*
X74763334Y-47807619D01*
X75715715Y-48712381D02*
X75144286Y-48712381D01*
X75430000Y-48712381D02*
X75430000Y-47712381D01*
X75334762Y-47855238D01*
X75239524Y-47950476D01*
X75144286Y-47998095D01*
X59523334Y-55729143D02*
X59475715Y-55776762D01*
X59332858Y-55824381D01*
X59237620Y-55824381D01*
X59094762Y-55776762D01*
X58999524Y-55681524D01*
X58951905Y-55586286D01*
X58904286Y-55395810D01*
X58904286Y-55252952D01*
X58951905Y-55062476D01*
X58999524Y-54967238D01*
X59094762Y-54872000D01*
X59237620Y-54824381D01*
X59332858Y-54824381D01*
X59475715Y-54872000D01*
X59523334Y-54919619D01*
X59904286Y-54919619D02*
X59951905Y-54872000D01*
X60047143Y-54824381D01*
X60285239Y-54824381D01*
X60380477Y-54872000D01*
X60428096Y-54919619D01*
X60475715Y-55014857D01*
X60475715Y-55110095D01*
X60428096Y-55252952D01*
X59856667Y-55824381D01*
X60475715Y-55824381D01*
X55713334Y-56237143D02*
X55665715Y-56284762D01*
X55522858Y-56332381D01*
X55427620Y-56332381D01*
X55284762Y-56284762D01*
X55189524Y-56189524D01*
X55141905Y-56094286D01*
X55094286Y-55903810D01*
X55094286Y-55760952D01*
X55141905Y-55570476D01*
X55189524Y-55475238D01*
X55284762Y-55380000D01*
X55427620Y-55332381D01*
X55522858Y-55332381D01*
X55665715Y-55380000D01*
X55713334Y-55427619D01*
X56046667Y-55332381D02*
X56665715Y-55332381D01*
X56332381Y-55713333D01*
X56475239Y-55713333D01*
X56570477Y-55760952D01*
X56618096Y-55808571D01*
X56665715Y-55903810D01*
X56665715Y-56141905D01*
X56618096Y-56237143D01*
X56570477Y-56284762D01*
X56475239Y-56332381D01*
X56189524Y-56332381D01*
X56094286Y-56284762D01*
X56046667Y-56237143D01*
X46331143Y-57570666D02*
X46378762Y-57618285D01*
X46426381Y-57761142D01*
X46426381Y-57856380D01*
X46378762Y-57999238D01*
X46283524Y-58094476D01*
X46188286Y-58142095D01*
X45997810Y-58189714D01*
X45854952Y-58189714D01*
X45664476Y-58142095D01*
X45569238Y-58094476D01*
X45474000Y-57999238D01*
X45426381Y-57856380D01*
X45426381Y-57761142D01*
X45474000Y-57618285D01*
X45521619Y-57570666D01*
X45759714Y-56713523D02*
X46426381Y-56713523D01*
X45378762Y-56951619D02*
X46093048Y-57189714D01*
X46093048Y-56570666D01*
X69508810Y-57602381D02*
X69508810Y-56602381D01*
X70556429Y-57507143D02*
X70508810Y-57554762D01*
X70365953Y-57602381D01*
X70270715Y-57602381D01*
X70127857Y-57554762D01*
X70032619Y-57459524D01*
X69985000Y-57364286D01*
X69937381Y-57173810D01*
X69937381Y-57030952D01*
X69985000Y-56840476D01*
X70032619Y-56745238D01*
X70127857Y-56650000D01*
X70270715Y-56602381D01*
X70365953Y-56602381D01*
X70508810Y-56650000D01*
X70556429Y-56697619D01*
X71508810Y-57602381D02*
X70937381Y-57602381D01*
X71223095Y-57602381D02*
X71223095Y-56602381D01*
X71127857Y-56745238D01*
X71032619Y-56840476D01*
X70937381Y-56888095D01*
X45601905Y-61412381D02*
X45601905Y-60412381D01*
X45982858Y-60412381D01*
X46078096Y-60460000D01*
X46125715Y-60507619D01*
X46173334Y-60602857D01*
X46173334Y-60745714D01*
X46125715Y-60840952D01*
X46078096Y-60888571D01*
X45982858Y-60936190D01*
X45601905Y-60936190D01*
X47125715Y-61412381D02*
X46554286Y-61412381D01*
X46840000Y-61412381D02*
X46840000Y-60412381D01*
X46744762Y-60555238D01*
X46649524Y-60650476D01*
X46554286Y-60698095D01*
X49777096Y-75144381D02*
X49300905Y-75144381D01*
X49253286Y-75620571D01*
X49300905Y-75572952D01*
X49396143Y-75525333D01*
X49634239Y-75525333D01*
X49729477Y-75572952D01*
X49777096Y-75620571D01*
X49824715Y-75715810D01*
X49824715Y-75953905D01*
X49777096Y-76049143D01*
X49729477Y-76096762D01*
X49634239Y-76144381D01*
X49396143Y-76144381D01*
X49300905Y-76096762D01*
X49253286Y-76049143D01*
X50110429Y-75144381D02*
X50443762Y-76144381D01*
X50777096Y-75144381D01*
X51872334Y-76144381D02*
X51872334Y-75477714D01*
X51872334Y-75144381D02*
X51824715Y-75192000D01*
X51872334Y-75239619D01*
X51919953Y-75192000D01*
X51872334Y-75144381D01*
X51872334Y-75239619D01*
X52348524Y-75477714D02*
X52348524Y-76144381D01*
X52348524Y-75572952D02*
X52396143Y-75525333D01*
X52491381Y-75477714D01*
X52634239Y-75477714D01*
X52729477Y-75525333D01*
X52777096Y-75620571D01*
X52777096Y-76144381D01*
X114117381Y-69968095D02*
X113117381Y-69968095D01*
X113117381Y-69587142D01*
X113165000Y-69491904D01*
X113212619Y-69444285D01*
X113307857Y-69396666D01*
X113450714Y-69396666D01*
X113545952Y-69444285D01*
X113593571Y-69491904D01*
X113641190Y-69587142D01*
X113641190Y-69968095D01*
X113212619Y-69015714D02*
X113165000Y-68968095D01*
X113117381Y-68872857D01*
X113117381Y-68634761D01*
X113165000Y-68539523D01*
X113212619Y-68491904D01*
X113307857Y-68444285D01*
X113403095Y-68444285D01*
X113545952Y-68491904D01*
X114117381Y-69063333D01*
X114117381Y-68444285D01*
X119911905Y-57602381D02*
X119435714Y-57602381D01*
X119435714Y-56602381D01*
X120245238Y-57602381D02*
X120245238Y-56935714D01*
X120245238Y-56602381D02*
X120197619Y-56650000D01*
X120245238Y-56697619D01*
X120292857Y-56650000D01*
X120245238Y-56602381D01*
X120245238Y-56697619D01*
X120626190Y-56935714D02*
X120864285Y-57602381D01*
X121102381Y-56935714D01*
X121864286Y-57554762D02*
X121769048Y-57602381D01*
X121578571Y-57602381D01*
X121483333Y-57554762D01*
X121435714Y-57459524D01*
X121435714Y-57078571D01*
X121483333Y-56983333D01*
X121578571Y-56935714D01*
X121769048Y-56935714D01*
X121864286Y-56983333D01*
X121911905Y-57078571D01*
X121911905Y-57173810D01*
X121435714Y-57269048D01*
X114117381Y-49648095D02*
X113117381Y-49648095D01*
X113117381Y-49267142D01*
X113165000Y-49171904D01*
X113212619Y-49124285D01*
X113307857Y-49076666D01*
X113450714Y-49076666D01*
X113545952Y-49124285D01*
X113593571Y-49171904D01*
X113641190Y-49267142D01*
X113641190Y-49648095D01*
X113117381Y-48743333D02*
X113117381Y-48124285D01*
X113498333Y-48457619D01*
X113498333Y-48314761D01*
X113545952Y-48219523D01*
X113593571Y-48171904D01*
X113688810Y-48124285D01*
X113926905Y-48124285D01*
X114022143Y-48171904D01*
X114069762Y-48219523D01*
X114117381Y-48314761D01*
X114117381Y-48600476D01*
X114069762Y-48695714D01*
X114022143Y-48743333D01*
X118173809Y-51252381D02*
X118173809Y-50252381D01*
X118745238Y-51252381D01*
X118745238Y-50252381D01*
X119602381Y-51204762D02*
X119507143Y-51252381D01*
X119316666Y-51252381D01*
X119221428Y-51204762D01*
X119173809Y-51109524D01*
X119173809Y-50728571D01*
X119221428Y-50633333D01*
X119316666Y-50585714D01*
X119507143Y-50585714D01*
X119602381Y-50633333D01*
X119650000Y-50728571D01*
X119650000Y-50823810D01*
X119173809Y-50919048D01*
X120507143Y-50585714D02*
X120507143Y-51252381D01*
X120078571Y-50585714D02*
X120078571Y-51109524D01*
X120126190Y-51204762D01*
X120221428Y-51252381D01*
X120364286Y-51252381D01*
X120459524Y-51204762D01*
X120507143Y-51157143D01*
X120840476Y-50585714D02*
X121221428Y-50585714D01*
X120983333Y-50252381D02*
X120983333Y-51109524D01*
X121030952Y-51204762D01*
X121126190Y-51252381D01*
X121221428Y-51252381D01*
X121554762Y-51252381D02*
X121554762Y-50585714D01*
X121554762Y-50776190D02*
X121602381Y-50680952D01*
X121650000Y-50633333D01*
X121745238Y-50585714D01*
X121840477Y-50585714D01*
X122602382Y-51252381D02*
X122602382Y-50728571D01*
X122554763Y-50633333D01*
X122459525Y-50585714D01*
X122269048Y-50585714D01*
X122173810Y-50633333D01*
X122602382Y-51204762D02*
X122507144Y-51252381D01*
X122269048Y-51252381D01*
X122173810Y-51204762D01*
X122126191Y-51109524D01*
X122126191Y-51014286D01*
X122173810Y-50919048D01*
X122269048Y-50871429D01*
X122507144Y-50871429D01*
X122602382Y-50823810D01*
X123221429Y-51252381D02*
X123126191Y-51204762D01*
X123078572Y-51109524D01*
X123078572Y-50252381D01*
X57111905Y-61412381D02*
X57111905Y-60412381D01*
X57492858Y-60412381D01*
X57588096Y-60460000D01*
X57635715Y-60507619D01*
X57683334Y-60602857D01*
X57683334Y-60745714D01*
X57635715Y-60840952D01*
X57588096Y-60888571D01*
X57492858Y-60936190D01*
X57111905Y-60936190D01*
X58540477Y-60745714D02*
X58540477Y-61412381D01*
X58302381Y-60364762D02*
X58064286Y-61079048D01*
X58683334Y-61079048D01*
X60644238Y-76096762D02*
X60739476Y-76144381D01*
X60929952Y-76144381D01*
X61025191Y-76096762D01*
X61072810Y-76001524D01*
X61072810Y-75953905D01*
X61025191Y-75858667D01*
X60929952Y-75811048D01*
X60787095Y-75811048D01*
X60691857Y-75763429D01*
X60644238Y-75668190D01*
X60644238Y-75620571D01*
X60691857Y-75525333D01*
X60787095Y-75477714D01*
X60929952Y-75477714D01*
X61025191Y-75525333D01*
X61882334Y-76096762D02*
X61787096Y-76144381D01*
X61596619Y-76144381D01*
X61501381Y-76096762D01*
X61453762Y-76001524D01*
X61453762Y-75620571D01*
X61501381Y-75525333D01*
X61596619Y-75477714D01*
X61787096Y-75477714D01*
X61882334Y-75525333D01*
X61929953Y-75620571D01*
X61929953Y-75715810D01*
X61453762Y-75811048D01*
X62358524Y-76144381D02*
X62358524Y-75477714D01*
X62358524Y-75668190D02*
X62406143Y-75572952D01*
X62453762Y-75525333D01*
X62549000Y-75477714D01*
X62644239Y-75477714D01*
X62977572Y-76144381D02*
X62977572Y-75477714D01*
X62977572Y-75144381D02*
X62929953Y-75192000D01*
X62977572Y-75239619D01*
X63025191Y-75192000D01*
X62977572Y-75144381D01*
X62977572Y-75239619D01*
X63882334Y-76144381D02*
X63882334Y-75620571D01*
X63834715Y-75525333D01*
X63739477Y-75477714D01*
X63549000Y-75477714D01*
X63453762Y-75525333D01*
X63882334Y-76096762D02*
X63787096Y-76144381D01*
X63549000Y-76144381D01*
X63453762Y-76096762D01*
X63406143Y-76001524D01*
X63406143Y-75906286D01*
X63453762Y-75811048D01*
X63549000Y-75763429D01*
X63787096Y-75763429D01*
X63882334Y-75715810D01*
X64501381Y-76144381D02*
X64406143Y-76096762D01*
X64358524Y-76001524D01*
X64358524Y-75144381D01*
X87280762Y-55411619D02*
X87185524Y-55364000D01*
X87090286Y-55268762D01*
X86947429Y-55125905D01*
X86852190Y-55078286D01*
X86756952Y-55078286D01*
X86804571Y-55316381D02*
X86709333Y-55268762D01*
X86614095Y-55173524D01*
X86566476Y-54983048D01*
X86566476Y-54649714D01*
X86614095Y-54459238D01*
X86709333Y-54364000D01*
X86804571Y-54316381D01*
X86995048Y-54316381D01*
X87090286Y-54364000D01*
X87185524Y-54459238D01*
X87233143Y-54649714D01*
X87233143Y-54983048D01*
X87185524Y-55173524D01*
X87090286Y-55268762D01*
X86995048Y-55316381D01*
X86804571Y-55316381D01*
X88185524Y-55316381D02*
X87614095Y-55316381D01*
X87899809Y-55316381D02*
X87899809Y-54316381D01*
X87804571Y-54459238D01*
X87709333Y-54554476D01*
X87614095Y-54602095D01*
X84597378Y-45856397D02*
X84502140Y-45808778D01*
X84406902Y-45713540D01*
X84264045Y-45570683D01*
X84168806Y-45523064D01*
X84073568Y-45523064D01*
X84121187Y-45761159D02*
X84025949Y-45713540D01*
X83930711Y-45618302D01*
X83883092Y-45427826D01*
X83883092Y-45094492D01*
X83930711Y-44904016D01*
X84025949Y-44808778D01*
X84121187Y-44761159D01*
X84311664Y-44761159D01*
X84406902Y-44808778D01*
X84502140Y-44904016D01*
X84549759Y-45094492D01*
X84549759Y-45427826D01*
X84502140Y-45618302D01*
X84406902Y-45713540D01*
X84311664Y-45761159D01*
X84121187Y-45761159D01*
X84930711Y-44856397D02*
X84978330Y-44808778D01*
X85073568Y-44761159D01*
X85311664Y-44761159D01*
X85406902Y-44808778D01*
X85454521Y-44856397D01*
X85502140Y-44951635D01*
X85502140Y-45046873D01*
X85454521Y-45189730D01*
X84883092Y-45761159D01*
X85502140Y-45761159D01*
X79451381Y-56935666D02*
X78975190Y-57269000D01*
X79451381Y-57507095D02*
X78451381Y-57507095D01*
X78451381Y-57126142D01*
X78499000Y-57030904D01*
X78546619Y-56983285D01*
X78641857Y-56935666D01*
X78784714Y-56935666D01*
X78879952Y-56983285D01*
X78927571Y-57030904D01*
X78975190Y-57126142D01*
X78975190Y-57507095D01*
X79451381Y-55983285D02*
X79451381Y-56554714D01*
X79451381Y-56269000D02*
X78451381Y-56269000D01*
X78594238Y-56364238D01*
X78689476Y-56459476D01*
X78737095Y-56554714D01*
X80605334Y-46934381D02*
X80272000Y-46458190D01*
X80033905Y-46934381D02*
X80033905Y-45934381D01*
X80414858Y-45934381D01*
X80510096Y-45982000D01*
X80557715Y-46029619D01*
X80605334Y-46124857D01*
X80605334Y-46267714D01*
X80557715Y-46362952D01*
X80510096Y-46410571D01*
X80414858Y-46458190D01*
X80033905Y-46458190D01*
X80986286Y-46029619D02*
X81033905Y-45982000D01*
X81129143Y-45934381D01*
X81367239Y-45934381D01*
X81462477Y-45982000D01*
X81510096Y-46029619D01*
X81557715Y-46124857D01*
X81557715Y-46220095D01*
X81510096Y-46362952D01*
X80938667Y-46934381D01*
X81557715Y-46934381D01*
X44704095Y-46696381D02*
X44704095Y-47505905D01*
X44751714Y-47601143D01*
X44799333Y-47648762D01*
X44894571Y-47696381D01*
X45085048Y-47696381D01*
X45180286Y-47648762D01*
X45227905Y-47601143D01*
X45275524Y-47505905D01*
X45275524Y-46696381D01*
X46275524Y-47696381D02*
X45704095Y-47696381D01*
X45989809Y-47696381D02*
X45989809Y-46696381D01*
X45894571Y-46839238D01*
X45799333Y-46934476D01*
X45704095Y-46982095D01*
X68120667Y-61364762D02*
X68263524Y-61412381D01*
X68501620Y-61412381D01*
X68596858Y-61364762D01*
X68644477Y-61317143D01*
X68692096Y-61221905D01*
X68692096Y-61126667D01*
X68644477Y-61031429D01*
X68596858Y-60983810D01*
X68501620Y-60936190D01*
X68311143Y-60888571D01*
X68215905Y-60840952D01*
X68168286Y-60793333D01*
X68120667Y-60698095D01*
X68120667Y-60602857D01*
X68168286Y-60507619D01*
X68215905Y-60460000D01*
X68311143Y-60412381D01*
X68549239Y-60412381D01*
X68692096Y-60460000D01*
X69025429Y-60412381D02*
X69263524Y-61412381D01*
X69454001Y-60698095D01*
X69644477Y-61412381D01*
X69882572Y-60412381D01*
X70787334Y-61412381D02*
X70215905Y-61412381D01*
X70501619Y-61412381D02*
X70501619Y-60412381D01*
X70406381Y-60555238D01*
X70311143Y-60650476D01*
X70215905Y-60698095D01*
X69700619Y-76096762D02*
X69843476Y-76144381D01*
X70081572Y-76144381D01*
X70176810Y-76096762D01*
X70224429Y-76049143D01*
X70272048Y-75953905D01*
X70272048Y-75858667D01*
X70224429Y-75763429D01*
X70176810Y-75715810D01*
X70081572Y-75668190D01*
X69891095Y-75620571D01*
X69795857Y-75572952D01*
X69748238Y-75525333D01*
X69700619Y-75430095D01*
X69700619Y-75334857D01*
X69748238Y-75239619D01*
X69795857Y-75192000D01*
X69891095Y-75144381D01*
X70129191Y-75144381D01*
X70272048Y-75192000D01*
X70605381Y-75477714D02*
X70795857Y-76144381D01*
X70986334Y-75668190D01*
X71176810Y-76144381D01*
X71367286Y-75477714D01*
X71748238Y-76144381D02*
X71748238Y-75477714D01*
X71748238Y-75144381D02*
X71700619Y-75192000D01*
X71748238Y-75239619D01*
X71795857Y-75192000D01*
X71748238Y-75144381D01*
X71748238Y-75239619D01*
X72081571Y-75477714D02*
X72462523Y-75477714D01*
X72224428Y-75144381D02*
X72224428Y-76001524D01*
X72272047Y-76096762D01*
X72367285Y-76144381D01*
X72462523Y-76144381D01*
X73224429Y-76096762D02*
X73129191Y-76144381D01*
X72938714Y-76144381D01*
X72843476Y-76096762D01*
X72795857Y-76049143D01*
X72748238Y-75953905D01*
X72748238Y-75668190D01*
X72795857Y-75572952D01*
X72843476Y-75525333D01*
X72938714Y-75477714D01*
X73129191Y-75477714D01*
X73224429Y-75525333D01*
X73653000Y-76144381D02*
X73653000Y-75144381D01*
X74081572Y-76144381D02*
X74081572Y-75620571D01*
X74033953Y-75525333D01*
X73938715Y-75477714D01*
X73795857Y-75477714D01*
X73700619Y-75525333D01*
X73653000Y-75572952D01*
X74319667Y-76239619D02*
X75081572Y-76239619D01*
X75319667Y-76144381D02*
X75319667Y-75144381D01*
X75557762Y-75144381D01*
X75700620Y-75192000D01*
X75795858Y-75287238D01*
X75843477Y-75382476D01*
X75891096Y-75572952D01*
X75891096Y-75715810D01*
X75843477Y-75906286D01*
X75795858Y-76001524D01*
X75700620Y-76096762D01*
X75557762Y-76144381D01*
X75319667Y-76144381D01*
X76319667Y-76144381D02*
X76319667Y-75144381D01*
X76700620Y-75144381D01*
X76795858Y-75192000D01*
X76843477Y-75239619D01*
X76891096Y-75334857D01*
X76891096Y-75477714D01*
X76843477Y-75572952D01*
X76795858Y-75620571D01*
X76700620Y-75668190D01*
X76319667Y-75668190D01*
X77272048Y-76096762D02*
X77414905Y-76144381D01*
X77653001Y-76144381D01*
X77748239Y-76096762D01*
X77795858Y-76049143D01*
X77843477Y-75953905D01*
X77843477Y-75858667D01*
X77795858Y-75763429D01*
X77748239Y-75715810D01*
X77653001Y-75668190D01*
X77462524Y-75620571D01*
X77367286Y-75572952D01*
X77319667Y-75525333D01*
X77272048Y-75430095D01*
X77272048Y-75334857D01*
X77319667Y-75239619D01*
X77367286Y-75192000D01*
X77462524Y-75144381D01*
X77700620Y-75144381D01*
X77843477Y-75192000D01*
X78129191Y-75144381D02*
X78700620Y-75144381D01*
X78414905Y-76144381D02*
X78414905Y-75144381D01*
M02*
