M48
;DRILL file {KiCad 4.0.2+dfsg1-stable} date Sun 08 May 2016 11:46:41 AM CEST
;FORMAT={-:-/ absolute / inch / decimal}
FMAT,2
INCH,TZ
T1C0.013
T2C0.051
T3C0.052
T4C0.126
%
G90
G05
M72
T1
X2.18Y-1.84
X2.51Y-2.09
X2.99Y-2.26
X3.1Y-2.13
X3.11Y-1.93
T2
X3.6561Y-1.825
X3.6561Y-2.625
X3.7348Y-1.5888
X3.7348Y-2.0612
X3.7348Y-2.3888
X3.7348Y-2.8612
X4.2152Y-1.5888
X4.2152Y-2.0612
X4.2152Y-2.3888
X4.2152Y-2.8612
T3
X1.9Y-2.675
X2.0969Y-2.675
X2.3531Y-2.675
X2.55Y-2.675
X2.81Y-2.675
X3.0069Y-2.675
X4.75Y-1.6531
X4.75Y-1.85
X4.75Y-2.4531
X4.75Y-2.65
T4
X1.7969Y-1.5969
X3.1748Y-1.5969
T0
M30
